<svg xmlns="http://www.w3.org/2000/svg" width="288" height="288" viewBox="0 0 288 288" version="1.1"><path d="M 59.750 28.717 C 57.162 31.439, 57.002 32.138, 57.040 40.555 L 57.080 49.500 65.790 53.470 C 70.581 55.654, 80.480 60.266, 87.789 63.720 C 95.098 67.174, 101.285 70, 101.539 70 C 102.673 70, 101.934 47.297, 100.750 45.757 C 98.643 43.017, 69.724 26.839, 66 26.316 C 63.093 25.908, 62.034 26.315, 59.750 28.717 M 131.500 124.550 C 126.550 127.576, 120.588 131.020, 118.250 132.203 C 115.912 133.386, 114 134.713, 114 135.150 C 114 135.908, 142.382 155, 143.508 155 C 143.804 155, 143.923 147.018, 143.773 137.263 C 143.544 122.412, 143.256 119.487, 142 119.287 C 141.175 119.155, 136.450 121.523, 131.500 124.550 M 186.852 188.750 C 186.771 189.162, 186.658 190.331, 186.602 191.348 C 186.543 192.416, 184.821 194.103, 182.520 195.348 C 173.616 200.163, 157.468 209.438, 157 210.006 C 156.725 210.340, 155.037 211.205, 153.250 211.928 C 151.463 212.651, 150 213.589, 150 214.013 C 150 214.437, 148.875 215.066, 147.500 215.411 C 146.125 215.756, 145 216.480, 145 217.019 C 145 217.559, 144.506 218, 143.901 218 C 143.297 218, 138.980 220.250, 134.307 223 C 129.635 225.750, 125.688 228, 125.536 228 C 124.943 228, 102.414 241.264, 101 242.445 C 97.223 245.600, 68.700 261.229, 66.486 261.357 C 65.119 261.436, 64.001 261.568, 64.001 261.652 C 63.998 262.319, 108.093 287, 109.286 287 C 110.482 287, 145.948 266.940, 176.500 248.982 C 178.150 248.012, 184.900 244.164, 191.500 240.431 C 198.100 236.697, 203.725 233.385, 204 233.071 C 204.563 232.428, 207.592 230.733, 216.897 225.854 C 220.415 224.009, 224.802 221.045, 226.647 219.268 L 230 216.035 230 203.018 L 230 190 208.441 190 C 194.323 190, 187.095 189.655, 187.500 189 C 187.840 188.450, 187.866 188, 187.559 188 C 187.252 188, 186.933 188.338, 186.852 188.750 M 81.500 203.547 C 70.500 209.880, 60.490 216.285, 59.255 217.781 C 57.331 220.112, 57.009 221.678, 57.005 228.750 C 57.002 233.287, 57.403 237, 57.895 237 C 58.724 237, 69.937 230.642, 92.797 217.212 L 102.094 211.749 101.924 201.875 C 101.830 196.444, 101.696 192.007, 101.627 192.016 C 101.557 192.025, 92.500 197.214, 81.500 203.547" stroke="none" fill="#9c844b" fill-rule="evenodd"/><path d="M 103.702 2.427 C 102.714 3.177, 93.401 8.675, 83.007 14.645 C 65.809 24.523, 64.356 25.566, 66.863 26.229 C 68.377 26.630, 76.389 30.905, 84.666 35.729 C 92.942 40.553, 118.723 55.525, 141.955 69 C 172.933 86.967, 184.565 94.210, 185.580 96.164 C 186.695 98.314, 186.974 107.640, 187.020 144.414 L 187.077 190 208.539 190 L 230 190 230 131.485 L 230 72.971 226.750 69.613 C 224.892 67.694, 200.585 53.068, 170 35.467 C 140.575 18.534, 115.306 3.851, 113.846 2.839 C 110.733 0.683, 106.243 0.500, 103.702 2.427 M 57.236 82.737 C 57.482 113.264, 57.621 115.496, 59.288 115.817 C 61.183 116.182, 98.625 94.837, 100.750 92.180 C 101.565 91.162, 102 87.096, 102 80.507 L 102 70.397 93.250 66.259 C 66.553 53.636, 58.637 50, 57.848 50 C 57.360 50, 57.089 64.486, 57.236 82.737 M 111.476 136.667 C 110.743 137.400, 109.491 138, 108.694 138 C 107.897 138, 106.685 138.675, 106 139.500 C 105.315 140.325, 104.336 141, 103.824 141 C 101.618 141, 62.245 164.521, 59.750 167.329 L 57 170.424 57 195.318 L 57 220.212 59.750 217.318 C 61.263 215.727, 71.950 209.080, 83.500 202.548 C 95.050 196.016, 113.275 185.661, 124 179.538 L 143.500 168.404 143.763 161.952 L 144.027 155.500 129.543 146.107 C 121.576 140.941, 115.250 136.404, 115.485 136.024 C 116.266 134.761, 112.832 135.311, 111.476 136.667 M 184 193.675 L 181.500 196.229 184.250 194.500 C 185.762 193.548, 187 192.372, 187 191.885 C 187 190.674, 186.850 190.763, 184 193.675 M 98 214.169 C 92.235 217.717, 61.674 235.278, 59.258 236.431 C 57.177 237.423, 57.015 238.159, 57.008 246.644 C 57 255.323, 57.145 255.944, 59.851 258.840 C 62.149 261.301, 63.328 261.813, 65.937 261.483 C 70.817 260.865, 100.902 243.246, 101.550 240.626 C 101.839 239.457, 101.946 232.541, 101.788 225.257 L 101.500 212.014 98 214.169" stroke="none" fill="#bda66b" fill-rule="evenodd"/></svg>