<svg xmlns="http://www.w3.org/2000/svg" width="200" height="200" viewBox="0 0 200 200" version="1.1"><path d="M 157.759 1.384 C 151.797 3.574, 149.374 5.595, 147.114 10.264 C 140.990 22.915, 148.612 36.640, 162.397 37.783 C 173.613 38.713, 182.317 30.509, 182.328 18.996 C 182.334 13.234, 181.176 10.073, 177.625 6.155 C 173.048 1.104, 164.263 -1.006, 157.759 1.384" stroke="none" fill="#ff7700" fill-rule="evenodd"/><path d="M 17 40.476 C 17 40.738, 17.898 42.425, 18.996 44.226 C 20.935 47.405, 20.993 49.299, 20.993 109.500 C 20.993 169.701, 20.935 171.595, 18.996 174.774 C 17.898 176.575, 17 178.262, 17 178.524 C 17 178.786, 26.660 179, 38.466 179 L 59.933 179 57.716 175.250 C 55.622 171.706, 55.483 170.181, 55.183 147.535 L 54.865 123.570 69.552 143.535 C 84.817 164.286, 89.537 172.410, 88.743 176.567 L 88.277 179 112.101 179 L 135.925 179 131.461 174.406 C 126.479 169.280, 124.835 167.108, 98.628 131.011 C 82.951 109.420, 80.318 105.292, 81.403 104.011 C 82.108 103.180, 91.850 91.025, 103.050 77 C 114.251 62.975, 126.034 48.912, 129.233 45.750 L 135.051 40 112.119 40 C 90.079 40, 89.207 40.074, 89.684 41.901 C 90.634 45.534, 86.217 52.611, 70.903 71.995 L 55.500 91.491 55.178 86.495 C 55.001 83.748, 55.001 73.850, 55.178 64.500 C 55.470 49.070, 55.705 47.154, 57.716 43.750 L 59.933 40 38.466 40 C 26.660 40, 17 40.214, 17 40.476 M 145.724 80.250 C 147.350 83.225, 147.500 87.263, 147.500 128.044 C 147.500 168.783, 147.351 172.816, 145.750 175.259 C 144.787 176.728, 144 178.170, 144 178.465 C 144 178.759, 152.951 179, 163.892 179 L 183.784 179 181.892 175.289 C 180.115 171.803, 180 168.705, 180 124.289 L 180 77 161.974 77 L 143.949 77 145.724 80.250" stroke="none" fill="#fbfbfb" fill-rule="evenodd"/><path d="M 5.655 16.829 C 4.141 18.502, 4 26.246, 4 107.674 C 4 192.641, 4.083 196.765, 5.829 198.345 C 7.503 199.860, 15.490 200, 100.174 200 C 188.532 200, 192.764 199.918, 194.345 198.171 C 195.859 196.498, 196 188.754, 196 107.326 C 196 6.138, 196.823 14.999, 187.421 15.001 L 182.500 15.002 182.354 19.849 C 182.026 30.785, 173.238 38.682, 162.397 37.783 C 152.335 36.949, 145 29.257, 145 19.540 L 145 15 76.155 15 C 10.729 15, 7.228 15.091, 5.655 16.829 M 17 40.476 C 17 40.738, 17.898 42.425, 18.996 44.226 C 20.935 47.405, 20.993 49.299, 20.993 109.500 C 20.993 169.701, 20.935 171.595, 18.996 174.774 C 17.898 176.575, 17 178.262, 17 178.524 C 17 178.786, 26.660 179, 38.466 179 L 59.933 179 57.716 175.250 C 55.622 171.706, 55.483 170.181, 55.183 147.535 L 54.865 123.570 69.552 143.535 C 84.817 164.286, 89.537 172.410, 88.743 176.567 L 88.277 179 112.101 179 L 135.925 179 131.461 174.406 C 126.479 169.280, 124.835 167.108, 98.628 131.011 C 82.951 109.420, 80.318 105.292, 81.403 104.011 C 82.108 103.180, 91.850 91.025, 103.050 77 C 114.251 62.975, 126.034 48.912, 129.233 45.750 L 135.051 40 112.119 40 C 90.079 40, 89.207 40.074, 89.684 41.901 C 90.634 45.534, 86.217 52.611, 70.903 71.995 L 55.500 91.491 55.178 86.495 C 55.001 83.748, 55.001 73.850, 55.178 64.500 C 55.470 49.070, 55.705 47.154, 57.716 43.750 L 59.933 40 38.466 40 C 26.660 40, 17 40.214, 17 40.476 M 145.724 80.250 C 147.350 83.225, 147.500 87.263, 147.500 128.044 C 147.500 168.783, 147.351 172.816, 145.750 175.259 C 144.787 176.728, 144 178.170, 144 178.465 C 144 178.759, 152.951 179, 163.892 179 L 183.784 179 181.892 175.289 C 180.115 171.803, 180 168.705, 180 124.289 L 180 77 161.974 77 L 143.949 77 145.724 80.250" stroke="none" fill="#2d439f" fill-rule="evenodd"/></svg>