<svg xmlns="http://www.w3.org/2000/svg" width="220" height="220" viewBox="0 0 220 220" version="1.1"><path d="M 89.500 9.973 C 69.152 14.388, 52.196 23.585, 37.940 37.939 C 24.880 51.088, 15.191 68.096, 10.810 85.560 C 7.591 98.397, 7.591 121.603, 10.810 134.440 C 15.197 151.930, 24.999 169.151, 37.924 182.076 C 50.836 194.988, 68.026 204.778, 85.560 209.204 C 98.411 212.448, 121.589 212.448, 134.440 209.204 C 151.974 204.778, 169.164 194.988, 182.076 182.076 C 195.001 169.151, 204.803 151.930, 209.190 134.440 C 212.409 121.603, 212.409 98.397, 209.190 85.560 C 206.626 75.338, 200.222 61.185, 193.950 51.877 C 188.443 43.706, 176.294 31.557, 168.123 26.050 C 158.974 19.885, 144.752 13.405, 134.956 10.940 C 122.525 7.811, 101.524 7.364, 89.500 9.973 M 73.159 31.601 C 67.654 35.457, 68.461 44.041, 74.570 46.594 C 77.261 47.718, 78.139 48.832, 79.025 52.247 C 79.632 54.586, 80.537 58.050, 81.037 59.944 C 81.537 61.838, 81.845 63.439, 81.723 63.501 C 81.600 63.564, 78.474 65.074, 74.776 66.857 C 67.305 70.460, 58.074 78.339, 54.277 84.354 C 48.496 93.511, 45.893 107.182, 47.959 117.533 C 51.443 134.986, 68.127 156.955, 89.500 172.233 C 98.373 178.576, 105.533 181.980, 110 181.980 C 119.835 181.980, 142.239 165.472, 156.554 147.677 C 173.049 127.171, 176.916 107.182, 168.002 88.503 C 164.165 80.466, 154.649 71.404, 145.314 66.902 C 141.566 65.094, 138.400 63.564, 138.277 63.501 C 138.155 63.439, 138.463 61.838, 138.963 59.944 C 139.463 58.050, 140.354 54.641, 140.943 52.369 C 141.765 49.194, 142.717 47.945, 145.054 46.978 C 151.290 44.394, 152.524 36.131, 147.288 32.012 C 143.532 29.057, 139.418 29.428, 135.800 33.046 C 133.195 35.651, 132.838 36.612, 133.334 39.670 C 133.653 41.638, 134.628 44.036, 135.500 45 C 136.947 46.599, 136.944 47.312, 135.468 53.186 C 133.162 62.369, 133.374 62.188, 126.440 60.894 C 121.356 59.946, 98.306 60.146, 89.080 61.219 C 86.852 61.478, 86.510 60.912, 84.786 54.127 C 83.073 47.385, 83.048 46.604, 84.499 45.001 C 85.372 44.037, 86.347 41.638, 86.666 39.670 C 87.162 36.612, 86.805 35.651, 84.200 33.046 C 80.751 29.598, 76.765 29.076, 73.159 31.601 M 68.030 84.537 C 60.045 88.107, 56.604 94.265, 57.200 103.913 C 57.751 112.827, 61.699 120.571, 70.351 129.709 C 77.295 137.043, 86.813 143, 91.588 143 C 100.813 143, 103.609 117.424, 96.125 101.500 C 89.731 87.895, 77.303 80.391, 68.030 84.537 M 143.994 83.934 C 133.272 87.196, 124.825 97.924, 121.896 112 C 119.779 122.176, 121.682 136.262, 125.848 141.250 C 129.500 145.623, 140.190 140.994, 150.503 130.575 C 162.213 118.744, 167.282 105.263, 163.622 95.680 C 161.491 90.101, 156.775 85.310, 152.150 84.025 C 148.023 82.879, 147.483 82.873, 143.994 83.934 M 74.455 110.455 C 73.105 111.805, 72 113.808, 72 114.907 C 72 121.130, 78.078 125.588, 82.887 122.892 C 86.806 120.695, 88.481 116.575, 86.953 112.887 C 84.721 107.497, 78.603 106.306, 74.455 110.455 M 136.174 110.314 C 131.812 114.957, 134.331 122.382, 140.684 123.609 C 147.543 124.933, 151.934 115.105, 146.686 110.174 C 143.611 107.286, 138.961 107.348, 136.174 110.314 M 75.500 112 C 74.663 113.354, 75.792 115, 77.559 115 C 78.352 115, 79 114.100, 79 113 C 79 110.930, 76.587 110.240, 75.500 112 M 142.533 111.947 C 141.653 113.370, 142.775 115, 144.632 115 C 145.508 115, 146.010 114.297, 145.823 113.333 C 145.434 111.324, 143.437 110.484, 142.533 111.947" stroke="none" fill="#fbfbf9" fill-rule="evenodd"/><path d="M 87.035 2.128 C 44.369 11.081, 10.850 44.923, 1.975 88.008 C -0.802 101.491, -0.398 123.780, 2.856 136.635 C 12.827 176.029, 44.142 207.199, 83.883 217.288 C 96.396 220.465, 123.604 220.465, 136.117 217.288 C 176.620 207.005, 208.918 174.233, 217.217 135 C 218.322 129.775, 219.625 124.719, 220.113 123.764 C 221.147 121.740, 221.336 94.331, 220.309 95.357 C 219.930 95.737, 218.779 91.890, 217.752 86.809 C 209.278 44.865, 174.880 10.738, 132.335 2.068 C 118.864 -0.677, 100.286 -0.652, 87.035 2.128 M 89.500 9.973 C 69.152 14.388, 52.196 23.585, 37.940 37.939 C 24.880 51.088, 15.191 68.096, 10.810 85.560 C 7.591 98.397, 7.591 121.603, 10.810 134.440 C 15.197 151.930, 24.999 169.151, 37.924 182.076 C 50.836 194.988, 68.026 204.778, 85.560 209.204 C 98.411 212.448, 121.589 212.448, 134.440 209.204 C 151.974 204.778, 169.164 194.988, 182.076 182.076 C 195.001 169.151, 204.803 151.930, 209.190 134.440 C 212.409 121.603, 212.409 98.397, 209.190 85.560 C 206.626 75.338, 200.222 61.185, 193.950 51.877 C 188.443 43.706, 176.294 31.557, 168.123 26.050 C 158.974 19.885, 144.752 13.405, 134.956 10.940 C 122.525 7.811, 101.524 7.364, 89.500 9.973 M 73.159 31.601 C 67.654 35.457, 68.461 44.041, 74.570 46.594 C 77.261 47.718, 78.139 48.832, 79.025 52.247 C 79.632 54.586, 80.537 58.050, 81.037 59.944 C 81.537 61.838, 81.845 63.439, 81.723 63.501 C 81.600 63.564, 78.474 65.074, 74.776 66.857 C 67.305 70.460, 58.074 78.339, 54.277 84.354 C 48.496 93.511, 45.893 107.182, 47.959 117.533 C 51.443 134.986, 68.127 156.955, 89.500 172.233 C 98.373 178.576, 105.533 181.980, 110 181.980 C 119.835 181.980, 142.239 165.472, 156.554 147.677 C 173.049 127.171, 176.916 107.182, 168.002 88.503 C 164.165 80.466, 154.649 71.404, 145.314 66.902 C 141.566 65.094, 138.400 63.564, 138.277 63.501 C 138.155 63.439, 138.463 61.838, 138.963 59.944 C 139.463 58.050, 140.354 54.641, 140.943 52.369 C 141.765 49.194, 142.717 47.945, 145.054 46.978 C 151.290 44.394, 152.524 36.131, 147.288 32.012 C 143.532 29.057, 139.418 29.428, 135.800 33.046 C 133.195 35.651, 132.838 36.612, 133.334 39.670 C 133.653 41.638, 134.628 44.036, 135.500 45 C 136.947 46.599, 136.944 47.312, 135.468 53.186 C 133.162 62.369, 133.374 62.188, 126.440 60.894 C 121.356 59.946, 98.306 60.146, 89.080 61.219 C 86.852 61.478, 86.510 60.912, 84.786 54.127 C 83.073 47.385, 83.048 46.604, 84.499 45.001 C 85.372 44.037, 86.347 41.638, 86.666 39.670 C 87.162 36.612, 86.805 35.651, 84.200 33.046 C 80.751 29.598, 76.765 29.076, 73.159 31.601 M 68.030 84.537 C 60.045 88.107, 56.604 94.265, 57.200 103.913 C 57.751 112.827, 61.699 120.571, 70.351 129.709 C 77.295 137.043, 86.813 143, 91.588 143 C 100.813 143, 103.609 117.424, 96.125 101.500 C 89.731 87.895, 77.303 80.391, 68.030 84.537 M 143.994 83.934 C 133.272 87.196, 124.825 97.924, 121.896 112 C 119.779 122.176, 121.682 136.262, 125.848 141.250 C 129.500 145.623, 140.190 140.994, 150.503 130.575 C 162.213 118.744, 167.282 105.263, 163.622 95.680 C 161.491 90.101, 156.775 85.310, 152.150 84.025 C 148.023 82.879, 147.483 82.873, 143.994 83.934 M 0.397 110 C 0.397 117.975, 0.553 121.237, 0.743 117.250 C 0.932 113.263, 0.932 106.737, 0.743 102.750 C 0.553 98.763, 0.397 102.025, 0.397 110 M 74.455 110.455 C 73.105 111.805, 72 113.808, 72 114.907 C 72 121.130, 78.078 125.588, 82.887 122.892 C 86.806 120.695, 88.481 116.575, 86.953 112.887 C 84.721 107.497, 78.603 106.306, 74.455 110.455 M 136.174 110.314 C 131.812 114.957, 134.331 122.382, 140.684 123.609 C 147.543 124.933, 151.934 115.105, 146.686 110.174 C 143.611 107.286, 138.961 107.348, 136.174 110.314 M 75.500 112 C 74.663 113.354, 75.792 115, 77.559 115 C 78.352 115, 79 114.100, 79 113 C 79 110.930, 76.587 110.240, 75.500 112 M 142.533 111.947 C 141.653 113.370, 142.775 115, 144.632 115 C 145.508 115, 146.010 114.297, 145.823 113.333 C 145.434 111.324, 143.437 110.484, 142.533 111.947" stroke="none" fill="#f37b07" fill-rule="evenodd"/></svg>