<?xml version="1.0" encoding="UTF-8"?>
<svg version="1.1" xmlns="http://www.w3.org/2000/svg" width="800" height="800">
<path d="M0 0 C246.18 0 492.36 0 746 0 C738.34301414 7.65698586 730.35722513 14.79250909 721.9375 21.59765625 C718.64602762 24.28948539 715.41164833 27.04073079 712.1875 29.8125 C711.30747314 30.56889771 711.30747314 30.56889771 710.40966797 31.34057617 C708.60562146 32.89276383 706.80261767 34.44615329 705 36 C691.74670726 47.4242669 691.74670726 47.4242669 685.5625 52.4375 C680.51145932 56.53915271 675.59871604 60.78591011 670.69213867 65.05786133 C665.03600979 69.98000517 659.32240409 74.83064755 653.58837891 79.66162109 C650.91091047 81.91767427 648.23627043 84.17706606 645.5625 86.4375 C645.03011719 86.88738281 644.49773438 87.33726562 643.94921875 87.80078125 C640.50778995 90.71275946 637.08328959 93.64371267 633.66601562 96.58398438 C629.00818074 100.59165256 624.33696364 104.56841613 619.5625 108.4375 C614.51145932 112.53915271 609.59871604 116.78591011 604.69213867 121.05786133 C599.03600979 125.98000517 593.32240409 130.83064755 587.58837891 135.66162109 C584.91091047 137.91767427 582.23627043 140.17706606 579.5625 142.4375 C579.03011719 142.88738281 578.49773438 143.33726562 577.94921875 143.80078125 C574.50778995 146.71275946 571.08328959 149.64371267 567.66601562 152.58398438 C563.00818074 156.59165256 558.33696364 160.56841613 553.5625 164.4375 C548.51145932 168.53915271 543.59871604 172.78591011 538.69213867 177.05786133 C533.03600979 181.98000517 527.32240409 186.83064755 521.58837891 191.66162109 C518.91091047 193.91767427 516.23627043 196.17706606 513.5625 198.4375 C513.03011719 198.88738281 512.49773438 199.33726562 511.94921875 199.80078125 C508.50778995 202.71275946 505.08328959 205.64371267 501.66601562 208.58398438 C497.00818074 212.59165256 492.33696364 216.56841613 487.5625 220.4375 C482.45692535 224.58060991 477.50199947 228.8823045 472.54711914 233.20288086 C468.91262149 236.36465838 465.24479157 239.46850206 461.5 242.5 C456.46571728 246.57821716 451.57489292 250.80617058 446.68969727 255.06030273 C442.10883911 259.04716333 437.49249713 262.9881908 432.84863281 266.90136719 C428.83615816 270.28481948 424.85289612 273.70100184 420.875 277.125 C416.81379124 280.61823856 412.72481029 284.06448707 408.5625 287.4375 C404.17472817 291.00055113 399.88896918 294.66593091 395.625 298.375 C394.99368164 298.92236816 394.36236328 299.46973633 393.71191406 300.03369141 C390.55981716 302.76781736 387.41858621 305.51298274 384.29296875 308.27734375 C383.13310477 309.28939755 381.97296148 310.30113137 380.8125 311.3125 C380.28414551 311.78671387 379.75579102 312.26092773 379.21142578 312.74951172 C376.11281707 315.42974288 375.28364081 316 371 316 C368.80859375 314.34765625 368.80859375 314.34765625 366.4375 312.0625 C362.98313323 308.8246606 359.50176163 305.71792839 355.8125 302.75 C350.67305572 298.58915231 345.67673848 294.28265511 340.69091797 289.94067383 C336.10956654 285.9535878 331.49289557 282.01214495 326.84863281 278.09863281 C322.83615816 274.71518052 318.85289612 271.29899816 314.875 267.875 C310.81379124 264.38176144 306.72481029 260.93551293 302.5625 257.5625 C297.51145932 253.46084729 292.59871604 249.21408989 287.69213867 244.94213867 C282.03755469 240.02133926 276.32536671 235.17226279 270.59277344 230.34277344 C267.89185198 228.06578569 265.19619693 225.7825781 262.5 223.5 C259.26301005 220.76018685 256.02546464 218.02104448 252.78515625 215.28515625 C247.12729174 210.50591674 241.48917257 205.7055149 235.875 200.875 C231.81371255 197.38184894 227.72481413 193.93551604 223.5625 190.5625 C218.51145932 186.46084729 213.59871604 182.21408989 208.69213867 177.94213867 C203.03600979 173.01999483 197.32240409 168.16935245 191.58837891 163.33837891 C188.91091047 161.08232573 186.23627043 158.82293394 183.5625 156.5625 C183.03011719 156.11261719 182.49773437 155.66273438 181.94921875 155.19921875 C177.90655238 151.77850105 173.88928039 148.32894463 169.875 144.875 C165.81371255 141.38184894 161.72481413 137.93551604 157.5625 134.5625 C152.51145932 130.46084729 147.59871604 126.21408989 142.69213867 121.94213867 C137.03600979 117.01999483 131.32240409 112.16935245 125.58837891 107.33837891 C122.91091047 105.08232573 120.23627043 102.82293394 117.5625 100.5625 C117.03011719 100.11261719 116.49773437 99.66273438 115.94921875 99.19921875 C111.90655238 95.77850105 107.88928039 92.32894463 103.875 88.875 C99.81371255 85.38184894 95.72481413 81.93551604 91.5625 78.5625 C86.51145932 74.46084729 81.59871604 70.21408989 76.69213867 65.94213867 C71.03600979 61.01999483 65.32240409 56.16935245 59.58837891 51.33837891 C56.91091047 49.08232573 54.23627043 46.82293394 51.5625 44.5625 C51.03011719 44.11261719 50.49773437 43.66273438 49.94921875 43.19921875 C45.90655238 39.77850105 41.88928039 36.32894463 37.875 32.875 C33.81371255 29.38184894 29.72481413 25.93551604 25.5625 22.5625 C21.0162016 18.86736593 16.55759695 15.08003492 12.125 11.25 C11.49408447 10.70674072 10.86316895 10.16348145 10.21313477 9.60375977 C9.60912842 9.07967529 9.00512207 8.55559082 8.3828125 8.015625 C7.85059082 7.55446289 7.31836914 7.09330078 6.77001953 6.61816406 C4.44083603 4.48880845 2.23150746 2.23150746 0 0 Z " fill="#FFFFFF" transform="translate(27,132)"/>
<path d="M0 0 C5.78414119 4.07707373 10.96090051 8.64477043 16.16015625 13.4375 C19.66932578 16.60395834 23.32054087 19.56152876 26.99609375 22.53125 C30.48716179 25.40037224 33.90378232 28.34644461 37.3125 31.3125 C37.94607422 31.86365479 38.57964844 32.41480957 39.23242188 32.98266602 C40.51848455 34.10178159 41.80445448 35.22100376 43.09033203 36.34033203 C51.94118112 44.0324916 60.81184072 51.71124172 70 59 C70.57105469 59.4640625 71.14210938 59.928125 71.73046875 60.40625 C75.56516314 63.28484096 79.27996925 64.27954865 84 64 C89.68898219 61.98020877 94.19205772 58.4936358 98.625 54.5 C99.84228576 53.43080494 101.05973858 52.36180005 102.27734375 51.29296875 C102.89206543 50.74817871 103.50678711 50.20338867 104.14013672 49.64208984 C107.13015167 47.00217904 110.15811463 44.40702939 113.1875 41.8125 C113.77297607 41.30968506 114.35845215 40.80687012 114.96166992 40.28881836 C118.41484875 37.33040313 121.90491798 34.42619075 125.4375 31.5625 C129.80168193 28.01740207 134.06943074 24.37554808 138.3125 20.6875 C138.94124023 20.14198486 139.56998047 19.59646973 140.21777344 19.03442383 C143.46580057 16.21331102 146.70329196 13.38098194 149.9296875 10.53515625 C151.18217416 9.43996977 152.43477399 8.3449127 153.6875 7.25 C154.26346924 6.73655029 154.83943848 6.22310059 155.43286133 5.6940918 C160.92780617 0.91186329 160.92780617 0.91186329 164 1 C166.26953125 2.4140625 166.26953125 2.4140625 168.8125 4.625 C170.26076172 5.86636719 170.26076172 5.86636719 171.73828125 7.1328125 C172.82593475 8.08807058 173.91315134 9.0438263 175 10 C176.22178855 11.06089595 177.4444775 12.12075566 178.66796875 13.1796875 C180.59758481 14.85061866 182.52607778 16.52272544 184.45043945 18.19970703 C188.08496353 21.36349039 191.7541794 24.46766904 195.5 27.5 C201.82873745 32.62862131 207.94705834 37.99274671 214.09033203 43.34033203 C221.13272391 49.4607846 228.19002801 55.56030337 235.4375 61.4375 C241.78276881 66.59186792 247.92509448 71.97362765 254.09033203 77.34033203 C261.13272391 83.4607846 268.19002801 89.56030337 275.4375 95.4375 C281.78602239 100.59451086 287.93093216 105.9794436 294.09912109 111.34912109 C302.04366928 118.24881733 310.06005266 125.06531273 318.1015625 131.8515625 C322.1290325 135.25340609 326.12909219 138.68617995 330.125 142.125 C334.1862481 145.61819482 338.27518779 149.06448551 342.4375 152.4375 C348.78276881 157.59186792 354.92509448 162.97362765 361.09033203 168.34033203 C368.13272391 174.4607846 375.19002801 180.56030337 382.4375 186.4375 C388.78276881 191.59186792 394.92509448 196.97362765 401.09033203 202.34033203 C408.13272391 208.4607846 415.19002801 214.56030337 422.4375 220.4375 C427.53210052 224.57170455 432.47867784 228.86172186 437.41992188 233.17651367 C442.23051614 237.36596658 447.13369907 241.41232473 452.12109375 245.390625 C452.74113281 245.92171875 453.36117187 246.4528125 454 247 C454 247.33 454 247.66 454 248 C207.82 248 -38.36 248 -292 248 C-286.37188209 242.37188209 -286.37188209 242.37188209 -283.6875 240.0546875 C-282.79683838 239.28390869 -282.79683838 239.28390869 -281.88818359 238.49755859 C-281.26508301 237.96211426 -280.64198242 237.42666992 -280 236.875 C-279.34209473 236.3073291 -278.68418945 235.7396582 -278.00634766 235.15478516 C-272.23256072 230.18102259 -266.42085647 225.25270924 -260.59277344 220.34277344 C-257.89185188 218.06578561 -255.19622756 215.78254206 -252.5 213.5 C-251.41669135 212.58330416 -250.33335804 211.66663747 -249.25 210.75 C-248.71375 210.29625 -248.1775 209.8425 -247.625 209.375 C-216.75 183.25 -216.75 183.25 -215.12524414 181.87524414 C-214.04104762 180.95782203 -212.95690055 180.04034148 -211.87280273 179.12280273 C-209.17807689 176.84221456 -206.48252188 174.56262185 -203.78515625 172.28515625 C-202.71086274 171.37769267 -201.63664413 170.4701404 -200.5625 169.5625 C-200.03027832 169.11277832 -199.49805664 168.66305664 -198.94970703 168.19970703 C-195.50818184 165.28748821 -192.08346344 162.35643692 -188.66601562 159.41601562 C-184.00818074 155.40834744 -179.33696364 151.43158387 -174.5625 147.5625 C-169.45692535 143.41939009 -164.50199947 139.1176955 -159.54711914 134.79711914 C-155.06249149 130.89578359 -150.4951833 127.11514838 -145.875 123.375 C-142.36452361 120.47504125 -138.93167273 117.49241862 -135.5 114.5 C-130.36772344 110.02465484 -125.16814726 105.65992874 -119.875 101.375 C-116.36452361 98.47504125 -112.93167273 95.49241862 -109.5 92.5 C-104.36772344 88.02465484 -99.16814726 83.65992874 -93.875 79.375 C-90.36452361 76.47504125 -86.93167273 73.49241862 -83.5 70.5 C-78.36772344 66.02465484 -73.16814726 61.65992874 -67.875 57.375 C-64.36452361 54.47504125 -60.93167273 51.49241862 -57.5 48.5 C-52.36772344 44.02465484 -47.16814726 39.65992874 -41.875 35.375 C-38.36452132 32.47503935 -34.93172858 29.49235748 -31.5 26.5 C-26.33471712 21.99736428 -21.11055982 17.59067967 -15.78515625 13.27734375 C-10.46219159 8.92490561 -5.23741046 4.45471319 0 0 Z " fill="#FFFFFF" transform="translate(319,420)"/>
<path d="M0 0 C0 165 0 330 0 500 C-8.90510949 493.32116788 -8.90510949 493.32116788 -12.8125 489.6875 C-16.19372336 486.59917897 -19.62664371 483.62932742 -23.1875 480.75 C-27.70940939 477.09153866 -32.11778899 473.32307284 -36.5 469.5 C-40.78206292 465.76584832 -45.08331835 462.07540896 -49.5 458.5 C-54.53428272 454.42178284 -59.42510708 450.19382942 -64.31030273 445.93969727 C-68.89116089 441.95283667 -73.50750287 438.0118092 -78.15136719 434.09863281 C-82.16384184 430.71518052 -86.14710388 427.29899816 -90.125 423.875 C-94.18620876 420.38176144 -98.27518971 416.93551293 -102.4375 413.5625 C-107.48854068 409.46084729 -112.40128396 405.21408989 -117.30786133 400.94213867 C-122.96399021 396.01999483 -128.67759591 391.16935245 -134.41162109 386.33837891 C-137.08908953 384.08232573 -139.76372957 381.82293394 -142.4375 379.5625 C-142.96988281 379.11261719 -143.50226563 378.66273438 -144.05078125 378.19921875 C-148.09344762 374.77850105 -152.11071961 371.32894463 -156.125 367.875 C-160.18628745 364.38184894 -164.27518587 360.93551604 -168.4375 357.5625 C-173.48854068 353.46084729 -178.40128396 349.21408989 -183.30786133 344.94213867 C-188.96399021 340.01999483 -194.67759591 335.16935245 -200.41162109 330.33837891 C-203.08908953 328.08232573 -205.76372957 325.82293394 -208.4375 323.5625 C-208.96988281 323.11261719 -209.50226563 322.66273438 -210.05078125 322.19921875 C-214.09344762 318.77850105 -218.11071961 315.32894463 -222.125 311.875 C-226.18628745 308.38184894 -230.27518587 304.93551604 -234.4375 301.5625 C-239.54307465 297.41939009 -244.49800053 293.1176955 -249.45288086 288.79711914 C-253.08737851 285.63534162 -256.75520843 282.53149794 -260.5 279.5 C-265.5237759 275.4302943 -270.40506753 271.21193644 -275.27954102 266.96606445 C-281.46636109 261.58046098 -287.72398405 256.28116687 -294 251 C-292.42155072 246.69236099 -289.11474529 244.2690224 -285.6875 241.4375 C-285.06230469 240.9115625 -284.43710937 240.385625 -283.79296875 239.84375 C-282.49628648 238.75359576 -281.19727202 237.6662098 -279.89599609 236.58154297 C-277.61477447 234.67866456 -275.34701897 232.76030924 -273.08081055 230.83959961 C-272.02192047 229.94228226 -270.96217852 229.04596925 -269.90161133 228.15063477 C-265.87256539 224.7486682 -261.87187811 221.31465507 -257.875 217.875 C-253.8137519 214.38180518 -249.72481221 210.93551449 -245.5625 207.5625 C-240.45692535 203.41939009 -235.50199947 199.1176955 -230.54711914 194.79711914 C-226.91262149 191.63534162 -223.24479157 188.53149794 -219.5 185.5 C-214.46571728 181.42178284 -209.57489292 177.19382942 -204.68969727 172.93969727 C-200.10883911 168.95283667 -195.49249713 165.0118092 -190.84863281 161.09863281 C-186.83615816 157.71518052 -182.85289612 154.29899816 -178.875 150.875 C-174.81379124 147.38176144 -170.72481029 143.93551293 -166.5625 140.5625 C-161.51145932 136.46084729 -156.59871604 132.21408989 -151.69213867 127.94213867 C-146.03600979 123.01999483 -140.32240409 118.16935245 -134.58837891 113.33837891 C-131.91091047 111.08232573 -129.23627043 108.82293394 -126.5625 106.5625 C-126.03011719 106.11261719 -125.49773437 105.66273438 -124.94921875 105.19921875 C-121.50778995 102.28724054 -118.08328959 99.35628733 -114.66601562 96.41601562 C-110.00818074 92.40834744 -105.33696364 88.43158387 -100.5625 84.5625 C-95.51145932 80.46084729 -90.59871604 76.21408989 -85.69213867 71.94213867 C-80.03600979 67.01999483 -74.32240409 62.16935245 -68.58837891 57.33837891 C-65.91091047 55.08232573 -63.23627043 52.82293394 -60.5625 50.5625 C-59.76392578 49.88767578 -59.76392578 49.88767578 -58.94921875 49.19921875 C-55.50778995 46.28724054 -52.08328959 43.35628733 -48.66601562 40.41601562 C-44.00818074 36.40834744 -39.33696364 32.43158387 -34.5625 28.5625 C-30.17476846 24.99948158 -25.88824946 21.33485469 -21.625 17.625 C-16.64328796 13.29080207 -11.65377029 8.96709476 -6.625 4.6875 C-6.07150879 4.21328613 -5.51801758 3.73907227 -4.94775391 3.25048828 C-1.11669061 0 -1.11669061 0 0 0 Z " fill="#FFFFFF" transform="translate(800,150)"/>
<path d="M0 0 C8.90510949 6.67883212 8.90510949 6.67883212 12.8125 10.3125 C16.19372336 13.40082103 19.62664371 16.37067258 23.1875 19.25 C27.70940939 22.90846134 32.11778899 26.67692716 36.5 30.5 C40.78206292 34.23415168 45.08331835 37.92459104 49.5 41.5 C54.53428272 45.57821716 59.42510708 49.80617058 64.31030273 54.06030273 C68.89116089 58.04716333 73.50750287 61.9881908 78.15136719 65.90136719 C82.16384184 69.28481948 86.14710388 72.70100184 90.125 76.125 C94.18620876 79.61823856 98.27518971 83.06448707 102.4375 86.4375 C107.48854068 90.53915271 112.40128396 94.78591011 117.30786133 99.05786133 C122.96399021 103.98000517 128.67759591 108.83064755 134.41162109 113.66162109 C137.08908953 115.91767427 139.76372957 118.17706606 142.4375 120.4375 C142.96988281 120.88738281 143.50226563 121.33726562 144.05078125 121.80078125 C148.09344762 125.22149895 152.11071961 128.67105537 156.125 132.125 C160.18628745 135.61815106 164.27518587 139.06448396 168.4375 142.4375 C173.48854068 146.53915271 178.40128396 150.78591011 183.30786133 155.05786133 C188.96399021 159.98000517 194.67759591 164.83064755 200.41162109 169.66162109 C203.08908953 171.91767427 205.76372957 174.17706606 208.4375 176.4375 C208.96988281 176.88738281 209.50226563 177.33726562 210.05078125 177.80078125 C214.09344762 181.22149895 218.11071961 184.67105537 222.125 188.125 C226.18628745 191.61815106 230.27518587 195.06448396 234.4375 198.4375 C239.54307465 202.58060991 244.49800053 206.8823045 249.45288086 211.20288086 C253.08737851 214.36465838 256.75520843 217.46850206 260.5 220.5 C265.5237759 224.5697057 270.40506753 228.78806356 275.27954102 233.03393555 C281.46636109 238.41953902 287.72398405 243.71883313 294 249 C292.42155072 253.30763901 289.11474529 255.7309776 285.6875 258.5625 C284.74970703 259.35140625 284.74970703 259.35140625 283.79296875 260.15625 C282.49628648 261.24640424 281.19727202 262.3337902 279.89599609 263.41845703 C277.61477447 265.32133544 275.34701897 267.23969076 273.08081055 269.16040039 C272.02192047 270.05771774 270.96217852 270.95403075 269.90161133 271.84936523 C265.87256539 275.2513318 261.87187811 278.68534493 257.875 282.125 C253.8137519 285.61819482 249.72481221 289.06448551 245.5625 292.4375 C240.45692535 296.58060991 235.50199947 300.8823045 230.54711914 305.20288086 C226.91262149 308.36465838 223.24479157 311.46850206 219.5 314.5 C214.46571728 318.57821716 209.57489292 322.80617058 204.68969727 327.06030273 C200.10883911 331.04716333 195.49249713 334.9881908 190.84863281 338.90136719 C186.83615816 342.28481948 182.85289612 345.70100184 178.875 349.125 C174.81379124 352.61823856 170.72481029 356.06448707 166.5625 359.4375 C161.51145932 363.53915271 156.59871604 367.78591011 151.69213867 372.05786133 C146.03600979 376.98000517 140.32240409 381.83064755 134.58837891 386.66162109 C131.91091047 388.91767427 129.23627043 391.17706606 126.5625 393.4375 C125.76392578 394.11232422 125.76392578 394.11232422 124.94921875 394.80078125 C121.50778995 397.71275946 118.08328959 400.64371267 114.66601562 403.58398438 C110.00818074 407.59165256 105.33696364 411.56841613 100.5625 415.4375 C95.51145932 419.53915271 90.59871604 423.78591011 85.69213867 428.05786133 C80.03600979 432.98000517 74.32240409 437.83064755 68.58837891 442.66162109 C65.91091047 444.91767427 63.23627043 447.17706606 60.5625 449.4375 C60.03011719 449.88738281 59.49773438 450.33726562 58.94921875 450.80078125 C55.50778995 453.71275946 52.08328959 456.64371267 48.66601562 459.58398438 C44.00818074 463.59165256 39.33696364 467.56841613 34.5625 471.4375 C30.17476846 475.00051842 25.88824946 478.66514531 21.625 482.375 C16.64328796 486.70919793 11.65377029 491.03290524 6.625 495.3125 C6.07150879 495.78671387 5.51801758 496.26092773 4.94775391 496.74951172 C1.11669061 500 1.11669061 500 0 500 C0 335 0 170 0 0 Z " fill="#FFFFFF" transform="translate(0,150)"/>
</svg>
