<svg xmlns="http://www.w3.org/2000/svg" width="412" height="309" viewBox="0 0 412 309" version="1.1"><path d="M 314.500 73.519 C 311.200 74.879, 307.577 75.993, 306.450 75.995 C 305.322 75.998, 303.972 76.413, 303.450 76.917 C 302.928 77.421, 297.775 79.433, 292 81.388 C 275.760 86.885, 272.655 87.982, 270.500 88.985 C 269.400 89.498, 267.375 90.048, 266 90.208 C 264.610 90.370, 263.500 91.147, 263.500 91.957 C 263.500 93.189, 274.418 101.762, 281.629 106.192 C 284.957 108.236, 299.442 118.272, 300 118.919 C 303.182 122.615, 312 125.641, 312 123.039 C 312 122.510, 313.913 121.566, 316.250 120.941 C 318.587 120.316, 320.950 119.472, 321.500 119.066 C 322.050 118.659, 325.200 117.268, 328.500 115.974 C 331.800 114.680, 335.976 112.806, 337.780 111.811 C 339.585 110.815, 341.502 110, 342.041 110 C 342.581 110, 345.154 109.055, 347.761 107.900 C 352.922 105.614, 353.724 105.264, 362.250 101.589 C 368.362 98.954, 369.388 97.152, 365.742 95.458 C 362.288 93.854, 354.560 89.566, 354 88.944 C 353.725 88.639, 351.700 87.503, 349.500 86.422 C 344.169 83.800, 336.622 79.631, 336 78.964 C 335.425 78.346, 321.387 70.988, 320.854 71.024 C 320.659 71.037, 317.800 72.160, 314.500 73.519 M 260.064 101.250 C 260.100 104.138, 260.892 117.874, 261.824 131.775 L 263.519 157.051 268.042 161.275 C 270.530 163.599, 274.575 167.137, 277.032 169.138 C 279.490 171.139, 282.472 173.614, 283.660 174.638 C 284.848 175.662, 287.765 178.075, 290.142 180 C 292.519 181.925, 296.497 185.410, 298.982 187.744 C 301.467 190.079, 304.063 191.991, 304.750 191.994 C 305.724 191.999, 306 184.941, 306 160.023 L 306 128.047 301.112 124.273 C 298.424 122.198, 292.236 117.695, 287.362 114.267 C 282.488 110.839, 274.759 105.326, 270.186 102.017 C 265.613 98.708, 261.450 96, 260.936 96 C 260.421 96, 260.029 98.362, 260.064 101.250 M 369.450 102.828 C 368.928 103.284, 364.900 105.141, 360.500 106.956 C 356.100 108.770, 350.592 111.097, 348.261 112.127 C 345.929 113.157, 343.787 114, 343.500 114 C 343.213 114, 340.846 114.945, 338.239 116.100 C 331.545 119.065, 330.191 119.627, 324 122.007 C 313.540 126.028, 311.558 127.311, 310.877 130.500 C 310.525 132.150, 310.183 146.896, 310.118 163.269 L 310 193.038 312.750 192.356 C 314.262 191.981, 327.279 185.877, 341.675 178.792 L 367.850 165.910 368.469 159.705 C 369.452 149.848, 371.086 126.548, 371.691 113.750 C 372.219 102.574, 371.843 100.741, 369.450 102.828 M 44.500 141.989 C 38.541 144.994, 35.999 149.356, 36.007 156.562 C 36.014 162.940, 37.598 166.401, 42.022 169.703 C 44.521 171.569, 45.958 172.283, 53.811 175.560 C 56.182 176.549, 58.544 178.148, 59.061 179.114 C 60.767 182.301, 60.151 186.781, 57.777 188.443 C 53.144 191.689, 48.287 189.641, 47.124 183.951 C 46.423 180.524, 46.380 180.500, 40.959 180.500 L 35.500 180.500 35.855 185.901 C 36.123 189.966, 36.805 191.896, 38.615 193.706 C 44.352 199.443, 54.870 200.671, 63.571 196.619 C 67.918 194.595, 68.955 193.533, 70.821 189.193 C 72.020 186.408, 72.964 182.638, 72.919 180.815 C 72.804 176.073, 69.095 170.109, 65 168.080 C 63.075 167.127, 58.462 164.870, 54.750 163.064 L 48 159.782 48 155.369 C 48 151.669, 48.392 150.779, 50.426 149.852 C 54.239 148.115, 57.958 149.540, 58.651 153.004 C 59.453 157.015, 61.165 158.186, 65.680 157.815 C 69.449 157.504, 69.504 157.440, 69.796 152.956 C 70.118 148.026, 68.883 145.965, 63.590 142.596 C 59.164 139.779, 49.492 139.472, 44.500 141.989 M 75.265 142.491 C 74.792 143.336, 74.586 145.576, 74.806 147.467 C 75.206 150.890, 75.234 150.908, 80.854 151.203 L 86.500 151.500 87 174.500 L 87.500 197.500 93 197.500 L 98.500 197.500 99 174.500 L 99.500 151.500 105.303 151.199 L 111.105 150.897 110.803 146.199 L 110.500 141.500 93.313 141.227 C 78.697 140.994, 75.997 141.183, 75.265 142.491 M 116.726 141.607 C 116.327 142.007, 116 154.858, 116 170.167 L 116 198 120.893 198 C 124.432 198, 125.954 197.562, 126.393 196.418 C 126.727 195.548, 127.029 186.886, 127.063 177.168 C 127.127 159.310, 127.966 157.128, 130.010 169.500 C 131.379 177.787, 135.982 196.382, 136.889 197.289 C 137.355 197.755, 139.435 197.993, 141.510 197.818 C 145.130 197.513, 145.335 197.297, 146.550 192.500 C 147.246 189.750, 148.372 184.575, 149.051 181 C 149.731 177.425, 150.611 174.050, 151.007 173.500 C 151.403 172.950, 152.025 169.852, 152.388 166.615 C 153.678 155.135, 154.506 158.748, 155 178 L 155.500 197.500 160.500 197.500 L 165.500 197.500 165.766 170.069 C 165.973 148.801, 165.748 142.452, 164.766 141.808 C 164.070 141.351, 160.442 141.052, 156.703 141.142 C 148.973 141.328, 149.002 141.300, 147.070 150.500 C 146.376 153.800, 145.402 157.534, 144.905 158.797 C 144.407 160.060, 144 162.072, 144 163.268 C 144 166.330, 141.670 176, 140.933 176 C 140.024 176, 138.477 169.941, 135.956 156.500 C 134.718 149.900, 133.357 143.809, 132.932 142.965 C 132.364 141.835, 130.214 141.357, 124.806 141.155 C 120.761 141.005, 117.125 141.208, 116.726 141.607 M 181.500 143.235 C 178.024 144.484, 175.184 147.419, 174.390 150.583 C 172.680 157.397, 177.533 160.709, 179.398 154 C 181.587 146.127, 189.480 143.370, 194.460 148.740 C 196.488 150.927, 197 152.505, 197 156.565 C 197 162.542, 194.240 165.990, 189.436 166.015 C 187.821 166.024, 185.880 166.423, 185.122 166.904 C 183.423 167.979, 184.512 169.992, 186.809 170.022 C 187.739 170.034, 190.386 170.900, 192.691 171.947 C 196.160 173.522, 197.068 174.540, 197.961 177.857 C 199.375 183.105, 197.902 189.799, 194.812 192.177 C 193.477 193.204, 190.766 193.965, 188.396 193.978 C 183.458 194.005, 179.284 190.671, 178.339 185.944 C 177.620 182.349, 175.465 181.106, 173.449 183.123 C 172.253 184.318, 172.388 185.244, 174.384 189.551 C 178.427 198.279, 186.723 201.249, 195.367 197.064 C 205.600 192.111, 207.874 178.355, 199.719 170.738 L 196.757 167.970 199.252 165.475 C 203.703 161.025, 203.581 150.054, 199.035 145.818 C 195.135 142.184, 187.540 141.066, 181.500 143.235 M 221 143.180 C 219.075 143.730, 216.929 144.652, 216.232 145.228 C 214.413 146.730, 212.137 151.998, 211.794 155.500 C 211.541 158.085, 211.834 158.500, 213.910 158.500 C 215.844 158.500, 216.534 157.748, 217.410 154.686 C 219.519 147.307, 225.052 144.243, 231.203 147.047 C 238.064 150.176, 237.411 163.762, 230.125 169.463 C 225.122 173.377, 214.393 184.522, 213.073 187.176 C 212.340 188.648, 211.687 191.573, 211.621 193.676 L 211.500 197.500 226.500 197.500 C 241.294 197.500, 241.504 197.469, 241.820 195.250 C 242.136 193.025, 242.008 193, 230.236 193 C 223.690 193, 218.071 192.737, 217.750 192.417 C 217.061 191.728, 218.873 187.301, 221 184.476 C 221.825 183.381, 224.973 180.463, 227.997 177.992 C 235.833 171.588, 237.623 169.696, 239.943 165.367 C 244.471 156.919, 240.895 145.484, 232.984 143.113 C 228.606 141.802, 225.771 141.817, 221 143.180 M 97.275 211.112 C 93.305 212.259, 89.043 217.426, 87.323 223.177 C 85.405 229.591, 85.725 251.221, 87.830 257.409 C 90.143 264.210, 94.929 267.931, 102.346 268.696 C 114.242 269.924, 121.197 264.222, 122.566 252.120 L 123.258 246 117.697 246 C 111.641 246, 111.796 245.840, 110.504 253.450 C 109.780 257.719, 107.722 259.918, 104.405 259.968 C 101.209 260.017, 99.108 256.942, 97.881 250.418 C 96.601 243.611, 97.398 226.416, 99.174 222.518 C 100.439 219.740, 103.677 218.445, 106.844 219.451 C 108.826 220.079, 111 224.631, 111 228.149 C 111 229.726, 111.814 230, 116.500 230 C 122.373 230, 122.346 230.028, 122.004 224.013 C 121.386 213.143, 110.286 207.353, 97.275 211.112 M 168.234 239.197 L 168.500 267.500 172.844 267.812 C 175.970 268.037, 177.522 267.668, 178.378 266.498 C 179.462 265.015, 179.799 265.054, 182.191 266.936 C 187.260 270.923, 195.608 268.736, 198.487 262.668 C 200.867 257.653, 201.697 250.409, 200.923 241.420 C 199.583 225.860, 194.310 221.594, 181.296 225.541 C 179.180 226.183, 179.080 225.916, 178.796 218.855 L 178.500 211.500 173.234 211.197 L 167.969 210.894 168.234 239.197 M 249.667 211.667 C 248.683 212.650, 248.885 265.270, 249.878 266.837 C 250.345 267.573, 251.800 268.023, 253.113 267.837 L 255.500 267.500 256 245 C 256.577 219.049, 256.158 218.835, 263.808 249 L 268.500 267.500 271.711 267.810 C 274.523 268.082, 275.094 267.709, 276.304 264.810 C 277.064 262.990, 278 259.700, 278.384 257.500 C 278.767 255.300, 279.716 251.250, 280.491 248.500 C 281.845 243.701, 284.612 232.963, 285.709 228.250 C 285.997 227.012, 286.631 226, 287.117 226 C 287.602 226, 288 235.216, 288 246.481 L 288 266.962 290.573 267.608 C 291.988 267.963, 293.571 267.829, 294.090 267.310 C 294.648 266.752, 294.924 255.174, 294.766 238.934 L 294.500 211.500 289.411 211.203 C 286.101 211.010, 283.986 211.360, 283.361 212.203 C 282.832 212.916, 281.357 218, 280.082 223.500 C 278.808 229, 277.368 234.281, 276.882 235.236 C 276.397 236.191, 276 237.922, 276 239.083 C 276 242.082, 273.049 251.852, 271.934 252.541 C 271.420 252.858, 271.002 252.304, 271.005 251.309 C 271.008 250.314, 270.378 247.475, 269.606 245 C 268.085 240.127, 265.633 230.241, 263.439 220.137 C 262.679 216.637, 261.539 213.150, 260.906 212.387 C 259.730 210.970, 250.928 210.406, 249.667 211.667 M 301.788 211.545 C 301.488 211.845, 304.107 217.807, 307.607 224.795 C 313.963 237.483, 314.884 240.336, 313 241.500 C 312.450 241.840, 312 242.954, 312 243.976 C 312 244.997, 311.663 245.983, 311.250 246.167 C 310.837 246.350, 308.250 250.861, 305.500 256.190 C 301.660 263.633, 300.773 266.156, 301.677 267.067 C 303.656 269.063, 308.074 267.264, 309.323 263.955 C 309.937 262.330, 310.790 261, 311.219 261 C 311.649 261, 312 260.267, 312 259.372 C 312 257.474, 317.824 246.969, 318.823 247.064 C 319.196 247.100, 321.750 251.712, 324.500 257.314 C 329.252 266.995, 329.668 267.516, 332.890 267.824 C 336.133 268.134, 336.254 268.026, 335.687 265.324 C 335.360 263.771, 332.547 257.775, 329.434 252 C 323.531 241.047, 322.498 236.363, 325.285 233.186 C 326.098 232.259, 327.102 230.375, 327.517 229 C 327.931 227.625, 328.584 226.275, 328.968 226 C 329.917 225.321, 336 213.184, 336 211.970 C 336 211.437, 334.419 211, 332.487 211 C 329.044 211, 328.884 211.187, 324.320 220.500 C 321.760 225.725, 319.320 230, 318.897 230 C 317.909 230, 312 218.409, 312 216.470 C 312 215.662, 311.602 215, 311.117 215 C 310.631 215, 309.998 214.100, 309.710 213 C 309.316 211.491, 308.346 211, 305.760 211 C 303.875 211, 302.088 211.245, 301.788 211.545 M 215.561 225.050 C 212.239 226.043, 208 230.162, 208 232.397 C 208 233.214, 207.550 234.160, 207 234.500 C 206.433 234.851, 206 239.812, 206 245.965 C 206 255.288, 206.316 257.407, 208.250 261.058 C 213.754 271.447, 230.808 271.681, 235.924 261.437 C 238.047 257.187, 238.588 254.100, 237.250 253.872 C 230.265 252.684, 228.292 253.365, 226.534 257.573 C 225.441 260.188, 224.506 261, 222.586 261 C 219.497 261, 217.931 258.346, 217.684 252.692 L 217.500 248.500 227.750 248.215 L 238 247.930 238 241.781 C 238 233.709, 235.039 227.332, 230.389 225.389 C 226.708 223.851, 220.080 223.700, 215.561 225.050 M 129.667 225.667 C 128.811 226.523, 128.793 257.713, 129.646 261.978 C 130.836 267.932, 140.471 271.160, 145.835 267.403 C 147.704 266.094, 148.626 266.016, 150.939 266.975 C 152.492 267.618, 155.279 267.999, 157.131 267.822 L 160.500 267.500 160.500 246.500 L 160.500 225.500 155.250 225.198 L 150 224.895 150 240.448 C 150 254.667, 149.829 256.171, 148 258 C 145.465 260.535, 142.372 260.564, 141.035 258.066 C 140.449 256.970, 140 249.383, 140 240.566 L 140 225 135.167 225 C 132.508 225, 130.033 225.300, 129.667 225.667 M 219.245 233.250 C 217.383 235.578, 216.807 239.063, 218.040 240.548 C 219.538 242.353, 225.379 242.453, 226.836 240.698 C 227.973 239.327, 227.387 235.363, 225.733 233.250 C 225.195 232.563, 223.740 232, 222.500 232 C 221.260 232, 219.795 232.563, 219.245 233.250 M 180.824 235.250 C 180.051 236.645, 179.603 241.218, 179.645 247.285 C 179.703 255.666, 179.985 257.275, 181.607 258.503 C 184.216 260.478, 185.653 260.347, 188.088 257.912 C 189.990 256.010, 190.147 254.888, 189.838 245.374 C 189.582 237.446, 189.138 234.696, 188 233.977 C 185.377 232.322, 182.127 232.898, 180.824 235.250" stroke="none" fill="#43b5e4" fill-rule="evenodd"/><path d="M 0 154.502 L 0 309.005 206.250 308.752 L 412.500 308.500 412.753 154.250 L 413.006 0 206.503 0 L 0 0 0 154.502 M 0.487 155 C 0.487 239.975, 0.606 274.738, 0.750 232.250 C 0.894 189.763, 0.894 120.238, 0.750 77.750 C 0.606 35.263, 0.487 70.025, 0.487 155 M 314.500 73.519 C 311.200 74.879, 307.577 75.993, 306.450 75.995 C 305.322 75.998, 303.972 76.413, 303.450 76.917 C 302.928 77.421, 297.775 79.433, 292 81.388 C 275.760 86.885, 272.655 87.982, 270.500 88.985 C 269.400 89.498, 267.375 90.048, 266 90.208 C 264.610 90.370, 263.500 91.147, 263.500 91.957 C 263.500 93.189, 274.418 101.762, 281.629 106.192 C 284.957 108.236, 299.442 118.272, 300 118.919 C 303.182 122.615, 312 125.641, 312 123.039 C 312 122.510, 313.913 121.566, 316.250 120.941 C 318.587 120.316, 320.950 119.472, 321.500 119.066 C 322.050 118.659, 325.200 117.268, 328.500 115.974 C 331.800 114.680, 335.976 112.806, 337.780 111.811 C 339.585 110.815, 341.502 110, 342.041 110 C 342.581 110, 345.154 109.055, 347.761 107.900 C 352.922 105.614, 353.724 105.264, 362.250 101.589 C 368.362 98.954, 369.388 97.152, 365.742 95.458 C 362.288 93.854, 354.560 89.566, 354 88.944 C 353.725 88.639, 351.700 87.503, 349.500 86.422 C 344.169 83.800, 336.622 79.631, 336 78.964 C 335.425 78.346, 321.387 70.988, 320.854 71.024 C 320.659 71.037, 317.800 72.160, 314.500 73.519 M 260.064 101.250 C 260.100 104.138, 260.892 117.874, 261.824 131.775 L 263.519 157.051 268.042 161.275 C 270.530 163.599, 274.575 167.137, 277.032 169.138 C 279.490 171.139, 282.472 173.614, 283.660 174.638 C 284.848 175.662, 287.765 178.075, 290.142 180 C 292.519 181.925, 296.497 185.410, 298.982 187.744 C 301.467 190.079, 304.063 191.991, 304.750 191.994 C 305.724 191.999, 306 184.941, 306 160.023 L 306 128.047 301.112 124.273 C 298.424 122.198, 292.236 117.695, 287.362 114.267 C 282.488 110.839, 274.759 105.326, 270.186 102.017 C 265.613 98.708, 261.450 96, 260.936 96 C 260.421 96, 260.029 98.362, 260.064 101.250 M 369.450 102.828 C 368.928 103.284, 364.900 105.141, 360.500 106.956 C 356.100 108.770, 350.592 111.097, 348.261 112.127 C 345.929 113.157, 343.787 114, 343.500 114 C 343.213 114, 340.846 114.945, 338.239 116.100 C 331.545 119.065, 330.191 119.627, 324 122.007 C 313.540 126.028, 311.558 127.311, 310.877 130.500 C 310.525 132.150, 310.183 146.896, 310.118 163.269 L 310 193.038 312.750 192.356 C 314.262 191.981, 327.279 185.877, 341.675 178.792 L 367.850 165.910 368.469 159.705 C 369.452 149.848, 371.086 126.548, 371.691 113.750 C 372.219 102.574, 371.843 100.741, 369.450 102.828 M 44.500 141.989 C 38.541 144.994, 35.999 149.356, 36.007 156.562 C 36.014 162.940, 37.598 166.401, 42.022 169.703 C 44.521 171.569, 45.958 172.283, 53.811 175.560 C 56.182 176.549, 58.544 178.148, 59.061 179.114 C 60.767 182.301, 60.151 186.781, 57.777 188.443 C 53.144 191.689, 48.287 189.641, 47.124 183.951 C 46.423 180.524, 46.380 180.500, 40.959 180.500 L 35.500 180.500 35.855 185.901 C 36.123 189.966, 36.805 191.896, 38.615 193.706 C 44.352 199.443, 54.870 200.671, 63.571 196.619 C 67.918 194.595, 68.955 193.533, 70.821 189.193 C 72.020 186.408, 72.964 182.638, 72.919 180.815 C 72.804 176.073, 69.095 170.109, 65 168.080 C 63.075 167.127, 58.462 164.870, 54.750 163.064 L 48 159.782 48 155.369 C 48 151.669, 48.392 150.779, 50.426 149.852 C 54.239 148.115, 57.958 149.540, 58.651 153.004 C 59.453 157.015, 61.165 158.186, 65.680 157.815 C 69.449 157.504, 69.504 157.440, 69.796 152.956 C 70.118 148.026, 68.883 145.965, 63.590 142.596 C 59.164 139.779, 49.492 139.472, 44.500 141.989 M 75.265 142.491 C 74.792 143.336, 74.586 145.576, 74.806 147.467 C 75.206 150.890, 75.234 150.908, 80.854 151.203 L 86.500 151.500 87 174.500 L 87.500 197.500 93 197.500 L 98.500 197.500 99 174.500 L 99.500 151.500 105.303 151.199 L 111.105 150.897 110.803 146.199 L 110.500 141.500 93.313 141.227 C 78.697 140.994, 75.997 141.183, 75.265 142.491 M 116.726 141.607 C 116.327 142.007, 116 154.858, 116 170.167 L 116 198 120.893 198 C 124.432 198, 125.954 197.562, 126.393 196.418 C 126.727 195.548, 127.029 186.886, 127.063 177.168 C 127.127 159.310, 127.966 157.128, 130.010 169.500 C 131.379 177.787, 135.982 196.382, 136.889 197.289 C 137.355 197.755, 139.435 197.993, 141.510 197.818 C 145.130 197.513, 145.335 197.297, 146.550 192.500 C 147.246 189.750, 148.372 184.575, 149.051 181 C 149.731 177.425, 150.611 174.050, 151.007 173.500 C 151.403 172.950, 152.025 169.852, 152.388 166.615 C 153.678 155.135, 154.506 158.748, 155 178 L 155.500 197.500 160.500 197.500 L 165.500 197.500 165.766 170.069 C 165.973 148.801, 165.748 142.452, 164.766 141.808 C 164.070 141.351, 160.442 141.052, 156.703 141.142 C 148.973 141.328, 149.002 141.300, 147.070 150.500 C 146.376 153.800, 145.402 157.534, 144.905 158.797 C 144.407 160.060, 144 162.072, 144 163.268 C 144 166.330, 141.670 176, 140.933 176 C 140.024 176, 138.477 169.941, 135.956 156.500 C 134.718 149.900, 133.357 143.809, 132.932 142.965 C 132.364 141.835, 130.214 141.357, 124.806 141.155 C 120.761 141.005, 117.125 141.208, 116.726 141.607 M 181.500 143.235 C 178.024 144.484, 175.184 147.419, 174.390 150.583 C 172.680 157.397, 177.533 160.709, 179.398 154 C 181.587 146.127, 189.480 143.370, 194.460 148.740 C 196.488 150.927, 197 152.505, 197 156.565 C 197 162.542, 194.240 165.990, 189.436 166.015 C 187.821 166.024, 185.880 166.423, 185.122 166.904 C 183.423 167.979, 184.512 169.992, 186.809 170.022 C 187.739 170.034, 190.386 170.900, 192.691 171.947 C 196.160 173.522, 197.068 174.540, 197.961 177.857 C 199.375 183.105, 197.902 189.799, 194.812 192.177 C 193.477 193.204, 190.766 193.965, 188.396 193.978 C 183.458 194.005, 179.284 190.671, 178.339 185.944 C 177.620 182.349, 175.465 181.106, 173.449 183.123 C 172.253 184.318, 172.388 185.244, 174.384 189.551 C 178.427 198.279, 186.723 201.249, 195.367 197.064 C 205.600 192.111, 207.874 178.355, 199.719 170.738 L 196.757 167.970 199.252 165.475 C 203.703 161.025, 203.581 150.054, 199.035 145.818 C 195.135 142.184, 187.540 141.066, 181.500 143.235 M 221 143.180 C 219.075 143.730, 216.929 144.652, 216.232 145.228 C 214.413 146.730, 212.137 151.998, 211.794 155.500 C 211.541 158.085, 211.834 158.500, 213.910 158.500 C 215.844 158.500, 216.534 157.748, 217.410 154.686 C 219.519 147.307, 225.052 144.243, 231.203 147.047 C 238.064 150.176, 237.411 163.762, 230.125 169.463 C 225.122 173.377, 214.393 184.522, 213.073 187.176 C 212.340 188.648, 211.687 191.573, 211.621 193.676 L 211.500 197.500 226.500 197.500 C 241.294 197.500, 241.504 197.469, 241.820 195.250 C 242.136 193.025, 242.008 193, 230.236 193 C 223.690 193, 218.071 192.737, 217.750 192.417 C 217.061 191.728, 218.873 187.301, 221 184.476 C 221.825 183.381, 224.973 180.463, 227.997 177.992 C 235.833 171.588, 237.623 169.696, 239.943 165.367 C 244.471 156.919, 240.895 145.484, 232.984 143.113 C 228.606 141.802, 225.771 141.817, 221 143.180 M 97.275 211.112 C 93.305 212.259, 89.043 217.426, 87.323 223.177 C 85.405 229.591, 85.725 251.221, 87.830 257.409 C 90.143 264.210, 94.929 267.931, 102.346 268.696 C 114.242 269.924, 121.197 264.222, 122.566 252.120 L 123.258 246 117.697 246 C 111.641 246, 111.796 245.840, 110.504 253.450 C 109.780 257.719, 107.722 259.918, 104.405 259.968 C 101.209 260.017, 99.108 256.942, 97.881 250.418 C 96.601 243.611, 97.398 226.416, 99.174 222.518 C 100.439 219.740, 103.677 218.445, 106.844 219.451 C 108.826 220.079, 111 224.631, 111 228.149 C 111 229.726, 111.814 230, 116.500 230 C 122.373 230, 122.346 230.028, 122.004 224.013 C 121.386 213.143, 110.286 207.353, 97.275 211.112 M 168.234 239.197 L 168.500 267.500 172.844 267.812 C 175.970 268.037, 177.522 267.668, 178.378 266.498 C 179.462 265.015, 179.799 265.054, 182.191 266.936 C 187.260 270.923, 195.608 268.736, 198.487 262.668 C 200.867 257.653, 201.697 250.409, 200.923 241.420 C 199.583 225.860, 194.310 221.594, 181.296 225.541 C 179.180 226.183, 179.080 225.916, 178.796 218.855 L 178.500 211.500 173.234 211.197 L 167.969 210.894 168.234 239.197 M 249.667 211.667 C 248.683 212.650, 248.885 265.270, 249.878 266.837 C 250.345 267.573, 251.800 268.023, 253.113 267.837 L 255.500 267.500 256 245 C 256.577 219.049, 256.158 218.835, 263.808 249 L 268.500 267.500 271.711 267.810 C 274.523 268.082, 275.094 267.709, 276.304 264.810 C 277.064 262.990, 278 259.700, 278.384 257.500 C 278.767 255.300, 279.716 251.250, 280.491 248.500 C 281.845 243.701, 284.612 232.963, 285.709 228.250 C 285.997 227.012, 286.631 226, 287.117 226 C 287.602 226, 288 235.216, 288 246.481 L 288 266.962 290.573 267.608 C 291.988 267.963, 293.571 267.829, 294.090 267.310 C 294.648 266.752, 294.924 255.174, 294.766 238.934 L 294.500 211.500 289.411 211.203 C 286.101 211.010, 283.986 211.360, 283.361 212.203 C 282.832 212.916, 281.357 218, 280.082 223.500 C 278.808 229, 277.368 234.281, 276.882 235.236 C 276.397 236.191, 276 237.922, 276 239.083 C 276 242.082, 273.049 251.852, 271.934 252.541 C 271.420 252.858, 271.002 252.304, 271.005 251.309 C 271.008 250.314, 270.378 247.475, 269.606 245 C 268.085 240.127, 265.633 230.241, 263.439 220.137 C 262.679 216.637, 261.539 213.150, 260.906 212.387 C 259.730 210.970, 250.928 210.406, 249.667 211.667 M 301.788 211.545 C 301.488 211.845, 304.107 217.807, 307.607 224.795 C 313.963 237.483, 314.884 240.336, 313 241.500 C 312.450 241.840, 312 242.954, 312 243.976 C 312 244.997, 311.663 245.983, 311.250 246.167 C 310.837 246.350, 308.250 250.861, 305.500 256.190 C 301.660 263.633, 300.773 266.156, 301.677 267.067 C 303.656 269.063, 308.074 267.264, 309.323 263.955 C 309.937 262.330, 310.790 261, 311.219 261 C 311.649 261, 312 260.267, 312 259.372 C 312 257.474, 317.824 246.969, 318.823 247.064 C 319.196 247.100, 321.750 251.712, 324.500 257.314 C 329.252 266.995, 329.668 267.516, 332.890 267.824 C 336.133 268.134, 336.254 268.026, 335.687 265.324 C 335.360 263.771, 332.547 257.775, 329.434 252 C 323.531 241.047, 322.498 236.363, 325.285 233.186 C 326.098 232.259, 327.102 230.375, 327.517 229 C 327.931 227.625, 328.584 226.275, 328.968 226 C 329.917 225.321, 336 213.184, 336 211.970 C 336 211.437, 334.419 211, 332.487 211 C 329.044 211, 328.884 211.187, 324.320 220.500 C 321.760 225.725, 319.320 230, 318.897 230 C 317.909 230, 312 218.409, 312 216.470 C 312 215.662, 311.602 215, 311.117 215 C 310.631 215, 309.998 214.100, 309.710 213 C 309.316 211.491, 308.346 211, 305.760 211 C 303.875 211, 302.088 211.245, 301.788 211.545 M 215.561 225.050 C 212.239 226.043, 208 230.162, 208 232.397 C 208 233.214, 207.550 234.160, 207 234.500 C 206.433 234.851, 206 239.812, 206 245.965 C 206 255.288, 206.316 257.407, 208.250 261.058 C 213.754 271.447, 230.808 271.681, 235.924 261.437 C 238.047 257.187, 238.588 254.100, 237.250 253.872 C 230.265 252.684, 228.292 253.365, 226.534 257.573 C 225.441 260.188, 224.506 261, 222.586 261 C 219.497 261, 217.931 258.346, 217.684 252.692 L 217.500 248.500 227.750 248.215 L 238 247.930 238 241.781 C 238 233.709, 235.039 227.332, 230.389 225.389 C 226.708 223.851, 220.080 223.700, 215.561 225.050 M 129.667 225.667 C 128.811 226.523, 128.793 257.713, 129.646 261.978 C 130.836 267.932, 140.471 271.160, 145.835 267.403 C 147.704 266.094, 148.626 266.016, 150.939 266.975 C 152.492 267.618, 155.279 267.999, 157.131 267.822 L 160.500 267.500 160.500 246.500 L 160.500 225.500 155.250 225.198 L 150 224.895 150 240.448 C 150 254.667, 149.829 256.171, 148 258 C 145.465 260.535, 142.372 260.564, 141.035 258.066 C 140.449 256.970, 140 249.383, 140 240.566 L 140 225 135.167 225 C 132.508 225, 130.033 225.300, 129.667 225.667 M 219.245 233.250 C 217.383 235.578, 216.807 239.063, 218.040 240.548 C 219.538 242.353, 225.379 242.453, 226.836 240.698 C 227.973 239.327, 227.387 235.363, 225.733 233.250 C 225.195 232.563, 223.740 232, 222.500 232 C 221.260 232, 219.795 232.563, 219.245 233.250 M 180.824 235.250 C 180.051 236.645, 179.603 241.218, 179.645 247.285 C 179.703 255.666, 179.985 257.275, 181.607 258.503 C 184.216 260.478, 185.653 260.347, 188.088 257.912 C 189.990 256.010, 190.147 254.888, 189.838 245.374 C 189.582 237.446, 189.138 234.696, 188 233.977 C 185.377 232.322, 182.127 232.898, 180.824 235.250" stroke="none" fill="#cbebfb" fill-rule="evenodd"/></svg>