<svg xmlns="http://www.w3.org/2000/svg" width="224" height="224" viewBox="0 0 224 224" version="1.1"><path d="M 109.852 43.706 C 108.332 43.940, 106.995 44.910, 106.715 45.983 C 106.311 47.525, 108.349 48.906, 118.363 53.876 C 143.228 66.218, 159.900 82.877, 171.776 107.248 C 176.463 116.868, 177.862 118.951, 179.500 118.748 C 181.268 118.529, 181.537 117.628, 181.815 111 C 183.263 76.475, 155.042 46.262, 119 43.752 C 115.425 43.503, 111.308 43.482, 109.852 43.706 M 79.997 53.124 C 78.073 54.281, 74.588 56.781, 72.250 58.680 C 68.304 61.887, 68 62.483, 68 67.006 L 68 71.877 72.750 72.428 C 97.075 75.246, 113.560 82.750, 128.203 97.670 C 136.397 106.019, 138.069 108.160, 142.475 115.955 C 148.830 127.200, 153.172 142.656, 153.933 156.750 C 153.977 157.572, 155.689 158, 158.933 158 C 163.528 158, 164.103 157.709, 167.320 153.750 C 174.471 144.948, 174.906 143.702, 173.436 136.194 C 165.631 96.317, 133.408 62.802, 94 53.573 C 89.875 52.607, 85.823 51.637, 84.997 51.419 C 84.170 51.201, 81.920 51.968, 79.997 53.124 M 52.656 61.064 C 27.464 92.684, 29.775 138.492, 58 166.962 C 74.456 183.561, 93.070 191.353, 116 191.240 C 135.906 191.142, 153.884 184.429, 168.517 171.632 L 172.500 168.148 170.342 165.944 L 168.184 163.740 162.587 168.300 C 155.050 174.439, 148.085 178.299, 138.500 181.648 C 131.114 184.229, 129.348 184.444, 115.500 184.444 C 101.683 184.444, 99.869 184.224, 92.500 181.664 C 68.315 173.261, 50.688 154.662, 43.826 130.309 C 40.942 120.071, 40.764 102.611, 43.448 93 C 46.140 83.358, 51.250 73.177, 57.383 65.240 L 62.830 58.189 60.576 56.071 L 58.322 53.953 52.656 61.064 M 64.627 82.468 C 56.035 85.531, 48.671 94.826, 47.381 104.237 C 46.107 113.534, 51.674 124.545, 60.365 129.917 C 62.109 130.995, 66.751 132.547, 70.681 133.366 C 82.011 135.729, 88.140 140.756, 91.401 150.361 C 93.444 156.377, 93.378 159.215, 91.040 165.989 C 89.998 169.008, 89.225 171.535, 89.323 171.605 C 93.750 174.754, 98.772 176.941, 103.506 177.783 C 108.587 178.687, 109.682 178.615, 110.697 177.306 C 112.272 175.276, 115 163.155, 115 158.189 C 115 146.094, 109.835 133.675, 101.225 125.065 C 94.470 118.310, 87.694 114.580, 77.730 112.130 C 70.090 110.252, 67.713 108.230, 69.644 105.250 C 72.437 100.937, 90.022 105.705, 100.655 113.658 C 115.837 125.013, 123.720 141.706, 122.755 160.455 C 122.499 165.430, 121.973 170.230, 121.586 171.123 C 121.014 172.444, 122.089 173.073, 127.366 174.501 C 133.567 176.180, 134.064 176.178, 138.832 174.463 C 144.734 172.341, 145 171.588, 145 157.035 C 145 131.993, 132.517 108.398, 111.730 94.146 C 96.773 83.892, 75.458 78.608, 64.627 82.468 M 66.528 146.272 C 61.663 151.137, 61.621 155.821, 66.400 160.600 C 70.892 165.092, 75.564 165.255, 80.234 161.082 C 83.018 158.595, 83.500 157.491, 83.500 153.605 C 83.500 147.770, 80.184 144.103, 74.181 143.297 C 70.452 142.797, 69.717 143.083, 66.528 146.272" stroke="none" fill="#fc3435" fill-rule="evenodd"/><path d="M -0 112.004 L -0 224.009 112.250 223.754 L 224.500 223.500 224.754 111.750 L 225.009 -0 112.504 -0 L 0 0 -0 112.004 M 0.483 112.500 C 0.483 174.100, 0.603 199.153, 0.750 168.173 C 0.897 137.193, 0.897 86.793, 0.750 56.173 C 0.603 25.553, 0.483 50.900, 0.483 112.500 M 109.852 43.706 C 108.332 43.940, 106.995 44.910, 106.715 45.983 C 106.311 47.525, 108.349 48.906, 118.363 53.876 C 143.228 66.218, 159.900 82.877, 171.776 107.248 C 176.463 116.868, 177.862 118.951, 179.500 118.748 C 181.268 118.529, 181.537 117.628, 181.815 111 C 183.263 76.475, 155.042 46.262, 119 43.752 C 115.425 43.503, 111.308 43.482, 109.852 43.706 M 79.997 53.124 C 78.073 54.281, 74.588 56.781, 72.250 58.680 C 68.304 61.887, 68 62.483, 68 67.006 L 68 71.877 72.750 72.428 C 97.075 75.246, 113.560 82.750, 128.203 97.670 C 136.397 106.019, 138.069 108.160, 142.475 115.955 C 148.830 127.200, 153.172 142.656, 153.933 156.750 C 153.977 157.572, 155.689 158, 158.933 158 C 163.528 158, 164.103 157.709, 167.320 153.750 C 174.471 144.948, 174.906 143.702, 173.436 136.194 C 165.631 96.317, 133.408 62.802, 94 53.573 C 89.875 52.607, 85.823 51.637, 84.997 51.419 C 84.170 51.201, 81.920 51.968, 79.997 53.124 M 52.656 61.064 C 27.464 92.684, 29.775 138.492, 58 166.962 C 74.456 183.561, 93.070 191.353, 116 191.240 C 135.906 191.142, 153.884 184.429, 168.517 171.632 L 172.500 168.148 170.342 165.944 L 168.184 163.740 162.587 168.300 C 155.050 174.439, 148.085 178.299, 138.500 181.648 C 131.114 184.229, 129.348 184.444, 115.500 184.444 C 101.683 184.444, 99.869 184.224, 92.500 181.664 C 68.315 173.261, 50.688 154.662, 43.826 130.309 C 40.942 120.071, 40.764 102.611, 43.448 93 C 46.140 83.358, 51.250 73.177, 57.383 65.240 L 62.830 58.189 60.576 56.071 L 58.322 53.953 52.656 61.064 M 64.627 82.468 C 56.035 85.531, 48.671 94.826, 47.381 104.237 C 46.107 113.534, 51.674 124.545, 60.365 129.917 C 62.109 130.995, 66.751 132.547, 70.681 133.366 C 82.011 135.729, 88.140 140.756, 91.401 150.361 C 93.444 156.377, 93.378 159.215, 91.040 165.989 C 89.998 169.008, 89.225 171.535, 89.323 171.605 C 93.750 174.754, 98.772 176.941, 103.506 177.783 C 108.587 178.687, 109.682 178.615, 110.697 177.306 C 112.272 175.276, 115 163.155, 115 158.189 C 115 146.094, 109.835 133.675, 101.225 125.065 C 94.470 118.310, 87.694 114.580, 77.730 112.130 C 70.090 110.252, 67.713 108.230, 69.644 105.250 C 72.437 100.937, 90.022 105.705, 100.655 113.658 C 115.837 125.013, 123.720 141.706, 122.755 160.455 C 122.499 165.430, 121.973 170.230, 121.586 171.123 C 121.014 172.444, 122.089 173.073, 127.366 174.501 C 133.567 176.180, 134.064 176.178, 138.832 174.463 C 144.734 172.341, 145 171.588, 145 157.035 C 145 131.993, 132.517 108.398, 111.730 94.146 C 96.773 83.892, 75.458 78.608, 64.627 82.468 M 66.528 146.272 C 61.663 151.137, 61.621 155.821, 66.400 160.600 C 70.892 165.092, 75.564 165.255, 80.234 161.082 C 83.018 158.595, 83.500 157.491, 83.500 153.605 C 83.500 147.770, 80.184 144.103, 74.181 143.297 C 70.452 142.797, 69.717 143.083, 66.528 146.272" stroke="none" fill="#fcfafa" fill-rule="evenodd"/></svg>