<svg xmlns="http://www.w3.org/2000/svg" width="512" height="512" viewBox="0 0 512 512" version="1.1"><path d="M 243 150.103 C 241.075 150.649, 238.938 151.150, 238.250 151.215 C 237.563 151.280, 237 151.654, 237 152.045 C 237 152.437, 235.601 153.337, 233.892 154.045 C 229.232 155.975, 216.757 166.688, 214.665 170.557 C 213.397 172.902, 213.038 174.897, 213.504 177.016 C 214.186 180.125, 221.344 189.323, 222.320 188.346 C 222.613 188.054, 225.743 190.505, 229.277 193.793 C 232.812 197.081, 236.769 200.341, 238.072 201.039 C 239.438 201.769, 244.268 202.345, 249.471 202.398 C 257.342 202.477, 259.141 202.156, 263.500 199.895 C 294.726 183.694, 296.242 182.506, 297.397 173.333 C 298.321 165.990, 296.221 163.913, 283.500 159.583 C 278 157.712, 269.675 154.817, 265 153.150 C 255.259 149.677, 248.030 148.676, 243 150.103 M 238.980 158.524 C 238.284 159.362, 237.946 160.279, 238.228 160.562 C 238.934 161.268, 244 158.879, 244 157.839 C 244 156.412, 240.316 156.915, 238.980 158.524 M 256 157.885 C 256 159.163, 261.049 162.285, 261.837 161.494 C 262.202 161.128, 261.438 159.967, 260.139 158.914 C 257.604 156.859, 256 156.460, 256 157.885 M 269.681 175.828 L 252.862 184.500 243.681 184.500 C 235.502 184.500, 233.900 184.185, 229 181.618 C 225.975 180.032, 222.206 177.651, 220.624 176.327 C 216.193 172.615, 216.152 174.545, 220.565 179.079 C 229.190 187.939, 240.556 190.825, 253.540 187.452 C 263.104 184.967, 289 170.724, 289 167.949 C 289 166.144, 286.428 167.193, 269.681 175.828 M 149.124 323.167 C 145.892 324.768, 142.982 327.706, 137.987 334.417 C 127.653 348.299, 126.745 348.938, 113.025 351.994 C 95.540 355.889, 94.741 357.282, 99.500 375.597 C 102.882 388.612, 102.746 391.631, 98.405 399.917 C 95.857 404.781, 94.769 408.195, 94.669 411.640 C 94.382 421.496, 100.126 425.139, 124.527 430.574 C 142.124 434.493, 158.695 439.523, 175.500 446.046 C 185.207 449.814, 187.499 450.327, 195 450.408 C 205.479 450.521, 211.457 448.450, 216.380 443.001 C 220.738 438.177, 223.002 430.843, 222.994 421.568 C 222.986 411.477, 221.772 408.197, 213.599 396.186 C 209.600 390.309, 202.368 378.981, 197.527 371.013 C 175.424 334.629, 164.052 320.998, 155.800 321.001 C 154.535 321.001, 151.531 321.976, 149.124 323.167 M 321.306 332.498 C 317.365 335.259, 316.172 341.225, 315.605 361 C 315.225 374.240, 314.319 384.049, 312.417 395.500 C 307.748 423.612, 308.841 436.141, 316.552 442.911 C 321.200 446.992, 326.606 448.238, 337.934 447.838 C 349.219 447.439, 354.140 445.458, 362.286 438.035 C 369.971 431.032, 386.573 419.500, 403.011 409.745 C 424.492 396.997, 426.886 394.892, 426.965 388.684 C 427.021 384.200, 425.343 382.202, 418.712 378.855 C 405.698 372.286, 401.518 367.392, 399.386 356.226 C 396.998 343.714, 395.875 340.157, 393.505 337.600 C 391.653 335.602, 390.594 335.274, 387.383 335.707 C 379.494 336.770, 375.519 339.170, 370.385 345.973 C 364.662 353.555, 359.333 356.960, 353.151 356.984 C 349.144 356.999, 342.189 354.629, 341.860 353.136 C 341.782 352.786, 341.632 350.025, 341.525 347 C 341.251 339.252, 340.387 337.293, 335.765 333.945 C 331.152 330.603, 324.904 329.978, 321.306 332.498" stroke="none" fill="#ffc201" fill-rule="evenodd"/><path d="M 248 64.587 C 239.585 66.813, 226.618 73.389, 221.698 77.924 C 216.012 83.165, 211.680 91.440, 209.354 101.500 C 207.026 111.569, 207.039 138.534, 209.385 166.328 C 211.348 189.591, 210.852 192.670, 203.150 205 C 201.260 208.025, 197.119 213.650, 193.947 217.500 C 173.049 242.867, 150.384 290.587, 147.546 315.196 C 146.744 322.146, 147.526 323.265, 152.184 321.835 C 154.166 321.227, 157.018 321.039, 158.521 321.416 C 165.598 323.192, 178.379 339.439, 197.530 371 C 202.369 378.975, 209.600 390.309, 213.599 396.186 C 221.646 408.012, 222.986 411.527, 222.994 420.829 L 223 427.159 225.750 426.635 C 230.451 425.741, 296.139 425.456, 303 426.300 L 309.500 427.100 309.598 419.800 C 309.652 415.785, 310.687 406.485, 311.898 399.133 C 313.108 391.781, 313.896 385.562, 313.647 385.314 C 313.399 385.066, 310.976 386.458, 308.262 388.407 C 301.636 393.168, 289.266 399.260, 279.500 402.573 C 259.342 409.412, 234.949 405.513, 218.995 392.902 C 216.248 390.730, 214 388.623, 214 388.220 C 214 387.816, 216.348 386.579, 219.217 385.471 C 223.577 383.786, 224.667 382.843, 225.853 379.727 C 227.108 376.429, 227.080 375.498, 225.610 371.650 C 224.189 367.927, 221.470 365.301, 206.725 353.414 C 187.305 337.757, 170.700 321.952, 168.981 317.489 C 167.257 313.015, 167.516 297.520, 169.447 289.500 C 171.060 282.805, 182.691 257.358, 183.685 258.351 C 183.947 258.614, 183.690 259.710, 183.114 260.788 C 181.117 264.519, 176.049 284.192, 174.942 292.510 C 174.082 298.974, 174.117 302.181, 175.099 306.682 L 176.368 312.500 177.249 308 C 182.719 280.066, 187.670 267.161, 198.734 252 C 205.883 242.202, 216.459 220.588, 218.994 210.590 C 220.138 206.079, 221 199.392, 221 195.027 C 221 187.817, 220.825 187.207, 217.978 184.479 C 214.127 180.789, 212.455 175.522, 213.919 171.695 C 214.509 170.152, 217.026 167.039, 219.512 164.777 L 224.032 160.663 222.064 158.568 C 216.476 152.620, 215.166 138.480, 219.367 129.458 C 222.155 123.472, 225.510 121, 230.848 121 C 238.637 121, 244.548 131.403, 243.845 143.876 L 243.500 150.001 246.532 149.430 C 248.200 149.116, 252.355 149.504, 255.766 150.292 L 261.969 151.725 261.235 149.113 C 260.831 147.676, 260.534 143.477, 260.576 139.781 C 260.759 123.524, 272.888 112.379, 284.355 117.930 C 295.569 123.359, 299.867 141.539, 293.082 154.840 C 291.953 157.053, 290.572 159.146, 290.014 159.491 C 288.461 160.451, 288.808 162, 290.577 162 C 291.444 162, 293.466 163.312, 295.070 164.916 C 297.812 167.658, 297.951 168.183, 297.389 173.666 C 296.855 178.877, 297.233 180.659, 300.928 190.346 C 310.021 214.180, 321.109 241.263, 324.807 248.673 C 335.415 269.921, 338.233 282.376, 338.391 308.691 L 338.500 326.882 341.339 324.191 C 342.900 322.711, 345.907 318.575, 348.021 315 C 361.714 291.844, 358.360 268.322, 338.816 250.440 C 335.677 247.568, 334.729 246.331, 336.500 247.420 C 348.413 254.744, 356.949 264.214, 361.156 274.775 C 364.542 283.276, 364.272 299.975, 360.546 312.500 C 359.073 317.450, 356.877 323.300, 355.665 325.500 C 353.636 329.185, 353.049 329.551, 348.220 330.142 C 343.589 330.709, 338 333.124, 338 334.558 C 338 334.840, 338.735 336.192, 339.634 337.564 C 340.608 339.051, 341.363 342.568, 341.504 346.278 C 341.633 349.700, 341.798 352.786, 341.870 353.136 C 342.174 354.623, 349.140 356.999, 353.151 356.984 C 359.333 356.960, 364.662 353.555, 370.385 345.973 C 375.459 339.250, 380.282 336.315, 387.111 335.795 C 390.838 335.511, 391.414 334.304, 394.176 321 C 396.468 309.960, 396.091 302.681, 392.494 288.500 C 387.683 269.539, 377.404 249.353, 360.077 224.846 C 339.306 195.466, 333.721 184.955, 328.277 165 C 325.993 156.624, 325.662 153.371, 325.484 137.500 C 325.300 121.187, 325.028 118.656, 322.587 110.500 C 318.797 97.840, 313.511 87.666, 307.157 80.803 C 302.853 76.154, 299.727 73.971, 292.312 70.436 C 287.146 67.973, 280.125 65.299, 276.710 64.494 C 268.876 62.647, 255.165 62.691, 248 64.587 M 272.881 132.463 C 267.922 135.234, 265.458 144.815, 267.991 151.477 C 269.260 154.813, 278.462 159.358, 281.095 157.949 C 283.922 156.436, 286.899 152.055, 287.585 148.399 C 289.610 137.605, 280.788 128.044, 272.881 132.463 M 225.516 134.335 C 222.099 139.550, 222.746 148.995, 226.869 154.086 C 228.574 156.192, 228.954 156.262, 231.941 155.024 C 236.993 152.932, 238.002 151.372, 237.984 145.679 C 237.961 138.459, 234.625 132.615, 230.287 132.191 C 227.835 131.952, 226.761 132.434, 225.516 134.335 M 238.980 158.524 C 238.284 159.362, 237.946 160.279, 238.228 160.562 C 238.934 161.268, 244 158.879, 244 157.839 C 244 156.412, 240.316 156.915, 238.980 158.524 M 256 157.885 C 256 159.163, 261.049 162.285, 261.837 161.494 C 262.202 161.128, 261.438 159.967, 260.139 158.914 C 257.604 156.859, 256 156.460, 256 157.885 M 269.681 175.828 L 252.862 184.500 243.681 184.500 C 235.502 184.500, 233.900 184.185, 229 181.618 C 225.975 180.032, 222.206 177.651, 220.624 176.327 C 216.193 172.615, 216.152 174.545, 220.565 179.079 C 229.190 187.939, 240.556 190.825, 253.540 187.452 C 263.104 184.967, 289 170.724, 289 167.949 C 289 166.144, 286.428 167.193, 269.681 175.828" stroke="none" fill="#272f35" fill-rule="evenodd"/><path d="M 271.907 118.328 C 263.529 122.752, 258.671 135.282, 260.994 146.473 C 261.967 151.157, 262.504 151.980, 265.204 152.921 C 269.237 154.327, 269.244 154.325, 268.035 152.066 C 266.271 148.769, 266.797 139.828, 268.946 136.567 C 272.684 130.897, 277.926 129.581, 282.486 133.168 C 289.792 138.915, 289.777 151.097, 282.456 156.856 L 279.872 158.888 284.012 160.003 C 289.107 161.375, 290.377 160.518, 293.649 153.500 C 296.298 147.818, 296.832 137.509, 294.824 130.807 C 293.179 125.315, 286.744 118.301, 282.192 117.037 C 277.177 115.644, 276.930 115.675, 271.907 118.328 M 223.743 123.363 C 219.734 127.078, 217.738 131.929, 217.216 139.229 C 216.645 147.202, 218.289 154.002, 221.794 158.167 L 224.263 161.101 226.541 158.962 L 228.819 156.822 226.436 153.310 C 221.913 146.646, 221.934 137.237, 226.479 133.287 C 231.817 128.648, 237.221 134.228, 237.831 145.007 C 238.211 151.738, 238.289 151.917, 240.361 150.826 C 241.538 150.207, 242.831 149.205, 243.235 148.600 C 244.489 146.722, 244.073 137.609, 242.489 132.276 C 239.532 122.316, 229.843 117.710, 223.743 123.363 M 294.231 181.901 C 292.980 183.593, 287.242 187.357, 280.302 191.039 C 256.979 203.413, 259.461 202.499, 249.471 202.398 C 244.268 202.345, 239.438 201.769, 238.072 201.039 C 236.769 200.341, 232.835 197.102, 229.329 193.841 C 225.823 190.579, 222.575 188.145, 222.112 188.431 C 221.649 188.717, 221.028 193.350, 220.733 198.726 C 219.861 214.619, 211.542 234.472, 197.991 253 C 187.605 267.200, 181.666 283.264, 177.485 308.471 C 176.984 311.492, 176.614 312.062, 175.938 310.853 C 172.763 305.180, 174.329 289.206, 179.892 270.515 C 181.527 265.024, 182.734 260.401, 182.576 260.243 C 182.417 260.084, 179.764 265.027, 176.680 271.227 C 171.155 282.336, 171.049 282.715, 169.388 297.284 C 168.037 309.139, 167.938 312.849, 168.886 316.014 C 170.930 322.838, 183.128 334.500, 214.177 359.315 C 222.020 365.583, 224.177 367.896, 225.562 371.524 C 227.083 375.506, 227.114 376.414, 225.847 379.750 C 224.653 382.893, 223.552 383.848, 219.046 385.650 L 213.670 387.800 217.585 391.439 C 219.738 393.441, 225.100 396.869, 229.500 399.058 C 248.801 408.656, 269.276 408.155, 291.696 397.534 C 303.558 391.915, 313.686 385.259, 314.442 382.586 C 314.767 381.439, 315.281 371.950, 315.585 361.500 C 316.176 341.207, 317.346 335.272, 321.306 332.498 C 324.270 330.422, 330.914 330.627, 334.362 332.900 C 337.204 334.774, 337.249 334.770, 340.752 332.394 C 342.692 331.077, 345.537 330, 347.074 330 C 352.327 330, 354.584 328.394, 356.900 323.010 C 362.239 310.599, 364.969 292.741, 363.095 282.490 C 360.851 270.217, 352.431 258.110, 340.500 250 L 335.500 246.601 342.085 253.744 C 354.186 266.870, 358.681 280.681, 355.664 295.470 C 354.795 299.736, 352.775 305.987, 351.177 309.363 C 348.414 315.197, 340.322 326.999, 339.082 327.001 C 338.762 327.002, 338.656 322.198, 338.846 316.327 C 339.282 302.892, 337.487 285.169, 334.511 273.500 C 333.223 268.450, 329.133 257.917, 325.193 249.500 C 318.009 234.156, 312.019 219.629, 302.306 194 C 299.284 186.025, 296.709 179.393, 296.585 179.262 C 296.460 179.132, 295.401 180.319, 294.231 181.901" stroke="none" fill="#eaf2f2" fill-rule="evenodd"/></svg>