<svg xmlns="http://www.w3.org/2000/svg" width="1280" height="745" viewBox="0 0 1280 745" version="1.1"><path d="M 324.135 1.750 C 322.550 4.713, 0.783 741.386, 0.258 743.251 C -0.210 744.918, 22.746 744.990, 475.993 744.751 L 952.220 744.500 1116.110 372.735 C 1206.249 168.265, 1280 0.752, 1280 0.485 C 1280 0.218, 1065.141 0, 802.535 0 C 348.830 0, 325.024 0.087, 324.135 1.750 M 218.323 308.266 L 92.146 594.500 279.803 594.753 L 467.461 595.005 472.980 592.273 C 476.016 590.771, 479.772 588.634, 481.326 587.526 C 485.157 584.795, 490.908 575.079, 492.657 568.383 C 494.015 563.180, 493.959 562.468, 491.559 554.602 C 490.168 550.040, 488.034 545.042, 486.818 543.495 C 485.601 541.949, 452.182 510.282, 412.553 473.126 C 318.813 385.234, 321.602 388.105, 307.976 365.460 C 299.186 350.852, 295.858 343.224, 291.111 326.802 C 283.571 300.718, 282.371 283.954, 286.460 261.817 C 290.217 241.475, 293.320 231.803, 300.998 216.500 C 316.845 184.914, 335.268 164.721, 362 149.638 C 366.125 147.310, 370.400 144.887, 371.500 144.253 C 383.594 137.280, 401.357 131.022, 418.500 127.693 L 429.500 125.558 813.809 125.029 L 1198.119 124.500 1220.559 73.510 C 1232.902 45.465, 1243 22.403, 1243 22.260 C 1243 22.117, 1040.838 22.007, 793.750 22.016 L 344.500 22.031 218.323 308.266 M 445.500 252.699 C 427.539 255.087, 415.982 267.864, 415.890 285.435 C 415.839 295.190, 417.928 299.668, 426.841 308.915 C 430.503 312.714, 466.125 346.386, 506 383.741 C 575.619 448.960, 583.529 456.881, 594.647 472.500 C 609.558 493.447, 618.450 518.662, 622.010 550.087 C 623.158 560.225, 621.901 581.724, 619.471 593.487 C 613.982 620.059, 598.448 649.779, 579.648 669.676 C 563.789 686.460, 538.339 704.388, 521 710.991 C 516.588 712.671, 513 715.838, 513 718.052 C 513 722.411, 513.809 722.486, 564.403 722.777 L 612.500 723.054 716 488.443 C 772.925 359.407, 819.650 253.419, 819.833 252.916 C 820.153 252.037, 452.079 251.824, 445.500 252.699 M 854.026 485.750 C 797.191 614.313, 750.481 720.290, 750.227 721.255 C 749.788 722.921, 754.447 722.997, 841.493 722.755 L 933.223 722.500 1037.604 487.500 C 1095.013 358.250, 1141.988 252.387, 1141.992 252.250 C 1141.997 252.113, 1100.457 252, 1049.681 252 L 957.363 252 854.026 485.750" stroke="none" fill="#fbfbfc" fill-rule="evenodd"/><path d="M 218.323 308.266 L 92.146 594.500 279.803 594.753 L 467.461 595.005 472.980 592.273 C 476.016 590.771, 479.772 588.634, 481.326 587.526 C 485.157 584.795, 490.908 575.079, 492.657 568.383 C 494.015 563.180, 493.959 562.468, 491.559 554.602 C 490.168 550.040, 488.034 545.042, 486.818 543.495 C 485.601 541.949, 452.182 510.282, 412.553 473.126 C 318.813 385.234, 321.602 388.105, 307.976 365.460 C 299.186 350.852, 295.858 343.224, 291.111 326.802 C 283.571 300.718, 282.371 283.954, 286.460 261.817 C 290.217 241.475, 293.320 231.803, 300.998 216.500 C 316.845 184.914, 335.268 164.721, 362 149.638 C 366.125 147.310, 370.400 144.887, 371.500 144.253 C 383.594 137.280, 401.357 131.022, 418.500 127.693 L 429.500 125.558 813.809 125.029 L 1198.119 124.500 1220.559 73.510 C 1232.902 45.465, 1243 22.403, 1243 22.260 C 1243 22.117, 1040.838 22.007, 793.750 22.016 L 344.500 22.031 218.323 308.266 M 445.500 252.699 C 427.539 255.087, 415.982 267.864, 415.890 285.435 C 415.839 295.190, 417.928 299.668, 426.841 308.915 C 430.503 312.714, 466.125 346.386, 506 383.741 C 575.619 448.960, 583.529 456.881, 594.647 472.500 C 609.558 493.447, 618.450 518.662, 622.010 550.087 C 623.158 560.225, 621.901 581.724, 619.471 593.487 C 613.982 620.059, 598.448 649.779, 579.648 669.676 C 563.789 686.460, 538.339 704.388, 521 710.991 C 516.588 712.671, 513 715.838, 513 718.052 C 513 722.411, 513.809 722.486, 564.403 722.777 L 612.500 723.054 716 488.443 C 772.925 359.407, 819.650 253.419, 819.833 252.916 C 820.153 252.037, 452.079 251.824, 445.500 252.699 M 854.026 485.750 C 797.191 614.313, 750.481 720.290, 750.227 721.255 C 749.788 722.921, 754.447 722.997, 841.493 722.755 L 933.223 722.500 1037.604 487.500 C 1095.013 358.250, 1141.988 252.387, 1141.992 252.250 C 1141.997 252.113, 1100.457 252, 1049.681 252 L 957.363 252 854.026 485.750" stroke="none" fill="#047cfc" fill-rule="evenodd"/></svg>