<?xml version="1.0" standalone="no"?>
<!DOCTYPE svg PUBLIC "-//W3C//DTD SVG 20010904//EN"
 "http://www.w3.org/TR/2001/REC-SVG-20010904/DTD/svg10.dtd">
<svg version="1.0" xmlns="http://www.w3.org/2000/svg"
 width="428.000000pt" height="359.000000pt" viewBox="0 0 428.000000 359.000000"
 preserveAspectRatio="xMidYMid meet">

<g transform="translate(0.000000,359.000000) scale(0.100000,-0.100000)"
fill="#000000" stroke="none">
<path d="M1982 2914 c-41 -13 -97 -39 -125 -58 -70 -44 -150 -132 -182 -197
l-27 -54 -121 0 c-116 0 -125 -2 -187 -31 -116 -55 -203 -151 -246 -269 l-22
-59 -78 -12 c-209 -30 -405 -175 -499 -369 -55 -114 -68 -180 -63 -325 4 -110
9 -135 35 -202 99 -249 298 -404 563 -439 47 -6 502 -9 1230 -7 l1155 3 72 27
c176 65 300 206 338 383 19 90 19 138 -1 233 -25 120 -87 219 -188 299 -65 52
-143 87 -229 104 -56 11 -59 13 -53 38 3 14 9 67 12 116 19 287 -183 563 -465
636 -78 20 -218 25 -282 10 -34 -8 -38 -6 -78 36 -64 64 -125 103 -215 135
-111 38 -237 39 -344 2z m353 -88 c60 -28 135 -82 166 -121 60 -73 47 -68 119
-51 275 65 538 -71 648 -336 24 -57 27 -75 26 -193 0 -132 0 -130 -49 -248 -6
-15 1 -17 73 -17 199 0 367 -118 426 -298 74 -225 -44 -475 -266 -562 l-63
-25 -1200 0 -1200 0 -73 22 c-178 53 -313 172 -387 339 -37 83 -46 135 -46
245 0 226 125 421 333 523 79 39 108 48 193 58 55 6 101 13 103 14 2 1 10 30
18 63 18 80 33 107 93 173 92 101 230 146 352 116 35 -9 71 -19 80 -23 13 -5
21 5 34 45 44 131 151 237 297 291 81 30 241 22 323 -15z"/>
<path d="M2303 1833 c-6 -18 -72 -179 -148 -358 -64 -151 -63 -145 -20 -145
41 0 31 -16 135 230 29 69 68 160 86 203 19 43 34 80 34 82 0 3 -18 5 -40 5
-30 0 -42 -5 -47 -17z"/>
<path d="M1360 1818 c-66 -36 -102 -94 -107 -177 -4 -58 -2 -72 24 -121 23
-45 38 -60 77 -79 57 -29 145 -32 211 -10 38 13 40 16 43 62 2 26 1 47 -1 47
-3 0 -25 -11 -48 -25 -104 -59 -199 -6 -199 110 0 48 21 101 49 122 29 22 114
16 155 -12 20 -14 39 -25 41 -25 3 0 5 22 5 48 0 43 -3 50 -27 62 -16 7 -62
15 -103 17 -65 4 -81 2 -120 -19z"/>
<path d="M840 1795 l0 -35 65 0 65 0 2 -167 3 -168 47 -3 48 -3 2 168 3 168
63 3 62 3 0 34 0 35 -180 0 -180 0 0 -35z"/>
<path d="M1692 1628 l3 -203 48 -3 47 -3 0 64 0 64 69 7 c81 8 127 34 153 86
23 46 23 87 -2 128 -30 50 -71 62 -205 62 l-115 0 2 -202z m212 116 c20 -19
21 -78 2 -97 -16 -16 -91 -31 -107 -22 -5 4 -9 35 -9 71 l0 64 49 0 c32 0 55
-6 65 -16z"/>
<path d="M2490 1795 c0 -33 2 -35 35 -35 l36 0 -3 -132 -3 -133 -32 -3 c-30
-3 -33 -6 -33 -38 l0 -35 118 3 117 3 3 33 c3 31 2 32 -32 32 l-36 0 0 134 0
135 33 3 c28 3 32 7 35 36 l3 32 -120 0 -121 0 0 -35z"/>
<path d="M2822 1628 l3 -203 50 0 50 0 3 61 3 62 61 6 c70 8 102 22 138 60 20
22 24 37 25 85 0 104 -45 131 -220 131 l-115 0 2 -202z m218 112 c22 -22 24
-37 11 -73 -10 -26 -20 -31 -83 -43 l-38 -6 0 71 0 71 45 0 c32 0 51 -6 65
-20z"/>
</g>
</svg>
